<svg xmlns="http://www.w3.org/2000/svg" viewBox="0 0 322.16213 330.65865"><path d="M147.731,268.22033c4.328,10.98512,2.33094,16.78358-7.34764,22.741,2.49328,10.85119.678,14.91041-9.01287,19.853a55.1668,55.1668,0,0,1,.93955,6.15721c.3468,7.81459-4.79747,13.94716-12.56585,13.6786-12.80454-.4427-25.58272-1.68389-38.365-2.679a6.019,6.019,0,0,1-3.68124-1.31882c-3.8888-4.14156-8.86936-3.76957-13.83971-3.90069-11.24725-.29677-21.12769-3.991-29.40175-11.8551a8.754,8.754,0,0,0-5.25221-2.04746c-5.655-.26065-11.33844.072-16.98974-.226-1.3915-.07342-2.70266-1.67064-4.05076-2.56734,1.28869-1.02348,2.5399-2.87082,3.87238-2.93142a188.2301,188.2301,0,0,1,19.984.01633c2.03277.124,4.25374,1.72059,5.87978,3.20161,9.14628,8.33077,19.81945,11.72086,32.53088,10.79947.02353-6.46579,2.28105-11.57763,8.39718-14.64054-3.30233-7.38459-2.79216-13.98706,4.01515-18.98877-4.77389-10.90666-3.80811-15.6348,4.47418-22.83506-.70516-2.89973-1.399-5.75291-2.1828-8.97619H75.72227c-1.73165,4.59437-3.0634,9.0628-5.05566,13.21413A30.0811,30.0811,0,0,1,51.987,281.16089c-1.6904.52825-3.94-.73385-5.93177-1.17036,1.2828-1.41181,2.30507-3.55055,3.89019-4.1189,11.26914-4.0406,16.98549-12.49478,18.91293-23.71576.76358-4.44536,2.50892-6.53824,7.0387-6.41912a60.91424,60.91424,0,0,0,8.48243-.43348c1.40306-.16015,3.26812-.46654,4.023-1.42033,4.35966-5.50855,10.08257-5.55566,16.30993-4.97109,8.953.8404,17.94475,1.28588,26.92615,1.789a11.3261,11.3261,0,0,0,4.8992-.61449c3.92577-1.66328,5.98217-4.72591,5.40753-9.12022-.55352-4.233-4.28439-7.32561-9.33927-7.36564-8.498-.06728-16.99874.12334-25.49741.26191-15.33066.24988-30.66029.56152-45.991.80908-11.73869.18958-19.85982,6.3206-23.15763,17.5668-4.01393,13.68833-1.6876,11.10106-15.29455,11.38556a80.01973,80.01973,0,0,1-10.48592-.10068c-1.41944-.15811-2.682-1.72553-4.01587-2.6519,1.27819-1.03444,2.47688-2.81572,3.84961-2.96186a61.01477,61.01477,0,0,1,11.97745-.12462c4.67061.42918,6.81209-.91373,8.16723-5.85994,4.37024-15.95124,14.44021-23.11361,31.15078-23.24873q11.99994-.097,23.99964-.2185c8.51537-.08514,8.52723-.08658,11.09309-7.99615.66727-2.05688,1.04813-4.22469,1.88184-6.20635,2.91022-6.91752,4.4841-13.01108-2.07821-19.55807-4.80885-4.79764-5.43448-12.22677-3.69985-18.94515,5.65612-21.90655,11.694-43.71426,17.45451-65.59434.95389-3.62318,2.93008-3.80643,5.97161-2.99107q21.20769,5.68538,42.4727,11.15515c3.17141.81271,3.93769,2.44185,3.11165,5.47905-5.9379,21.83264-11.5409,43.76064-17.8066,65.49793-2.74208,9.51293-9.81641,15.35054-19.59312,17.22752-3.18313.61112-4.41217,1.9877-5.11489,4.95043-1.25528,5.29244-2.94012,10.483-4.60331,16.26518,5.34968,0,9.99982.28309,14.60441-.055,12.091-.88772,22.11257,11.1918,13.7206,23.9457,6.38848,1.53259,10.1817,5.68767,10.83275,12.02851C156.20765,260.01232,153.37581,264.93334,147.731,268.22033Zm-41.54251-124.198c-1.89787,7.13318-3.64441,13.87-5.48594,20.5808-3.25483,11.86084,2.7007,22.67651,14.44674,26.13162,10.90269,3.207,22.45765-3.34214,25.68694-14.74528,2.49131-8.7971,4.74051-17.6629,7.08281-26.502.83624-3.15572,1.62984-6.32276,2.86135-11.11193-5.60387.66014-10.11986.93241-14.53019,1.76477C126.52128,141.97643,117.19416,146.52825,106.18845,144.02233Zm11.05917-41.03149c-3.2178,11.92041-6.33308,23.46092-9.79667,36.29187,5.16768-.52165,9.2376-.74316,13.24314-1.37372,10.36607-1.63179,20.133-7.22237,31.46214-4.22563,1.80223-6.81863,3.516-13.3027,5.31022-20.09081Zm8.773,181.22869-.007.10294c3.49366.17036,6.98614.44533,10.48128.48511,4.56927.05205,7.31464-2.7448,7.542-7.44055.22788-4.70613-2.21525-8.23428-6.46056-8.57043q-21.65964-1.71483-43.34575-3.08724c-5.218-.32965-8.14106,2.60311-8.30242,7.74022-.16444,5.23554,2.31068,7.88963,7.71956,8.30025Q109.83466,282.97864,126.0206,284.21953Zm-23.15081-39.45094.00226-.11406c-.66594,0-1.33232.01594-1.99774-.0025-5.85382-.16235-8.87368,2.22895-9.21592,7.30552-.34464,5.11214,2.33136,7.88066,8.26618,8.30272q20.6826,1.47089,41.37428,2.81355c4.81552.3183,8.07991-2.42785,8.54333-7.06749a7.38658,7.38658,0,0,0-7.0959-8.44483C129.4578,246.58061,116.16245,245.693,102.86979,244.76859Zm14.03535,59.53482q4.47744.25673,8.95487.51368c5.8695.33933,9.50675-2.052,9.97563-6.56055.431-4.14428-2.70311-7.45939-8.28489-7.97347C115.813,289.202,104.05318,288.34241,92.2924,287.539c-5.92021-.40442-9.45944,2.23749-9.68194,6.81953-.21012,4.32684,2.87886,7.29242,8.482,7.80894C99.68908,302.96,108.3003,303.59358,116.90514,304.30341Zm-2.83862,20.44534.008-.10673c.99546.07456,1.99018.162,2.98653.22161,5.7328.34318,9.34026-2.255,9.63221-6.92968.261-4.17834-2.59843-7.15647-8.01124-7.64152-11.097-.99445-22.20819-1.88583-33.33077-2.51556-5.60842-.31756-8.76852,2.57183-8.84211,7.223-.06846,4.32833,2.836,7.06977,8.20448,7.5075C94.49381,323.3047,104.28178,324.00684,114.06652,324.74875ZM102.30215,217.79057c7.353.69835,7.55355.73553,8.54411-2.41121,1.87835-5.96707,3.55426-11.99789,5.4253-18.38093-2.51891-.58871-4.68424-1.09479-7.12984-1.66635C106.82385,202.943,104.62473,210.16409,102.30215,217.79057Z"/><path d="M167.81657,261.22679c-13.88169-13.97684-6.112-41.69766,23.62834-38.47182-1.55866-8.61765-3.07795-17.01752-4.5896-25.37528-3.51211-1.32029-7.07025-2.2595-10.24124-3.93271a25.20629,25.20629,0,0,1-12.92941-16.37912c-1.673-6.26712-2.88013-12.66578-4.72873-18.87662-1.4938-5.0188,1.10371-6.55856,5.16069-7.50577,8.81424-2.05791,17.1261.35239,25.54516,2.49987a106.99472,106.99472,0,0,0,14.20245,2.28534c2.3367.26917,3.78813-.86271,3.22943-3.63155-3.25125-16.11252-6.4567-32.23428-9.78823-48.90663-7.51213,1.44323-14.65816,2.816-21.80408,4.18909-1.30662.25108-2.66743.85685-3.90569.666a21.11394,21.11394,0,0,1-4.49-1.74257c1.13156-1.30649,2.06581-3.46347,3.42717-3.7794,7.93563-1.84163,15.95722-3.33007,23.97764-4.78366,7.23443-1.31111,7.26358-1.22655,8.6956,5.83819q6.09888,30.08785,12.18875,60.17747c2.095,10.26218-.27879,19.0913-7.91924,26.45618-1.03412.99683-2.14922,2.83248-1.935,4.0529,1.43529,8.17792,3.22049,16.29442,4.89318,24.4357,5.11091-1.27282,10.02244-3.40026,15.00631-3.586,26.48713-.98752,48.51988,8.38054,64.8953,29.64287,1.85352,2.40666,3.58872,3.44657,6.54052,3.41589,6.16175-.06411,12.33956.009,18.48166.44053,1.54731.10871,2.98467,1.7832,4.47258,2.73811-1.49862.905-2.973,2.53971-4.5,2.59063-7.15623.23862-14.3446.31033-21.4823-.1571a9.69345,9.69345,0,0,1-6.49708-3.3853c-14.94278-20.78638-35.42725-30.03837-60.60855-29.51986-13.75669.28321-15.849,3.60064-11.79256,19.10548,7.96582-1.66089,16.012-3.32164,24.04786-5.03126,1.29314-.2751,2.53408-1.04571,3.80982-1.07215,1.00257-.02076,2.67547.55264,2.88019,1.22082.30807,1.00545-.02951,2.97115-.7537,3.39284-2.54264,1.48047-5.28,3.18747-8.10046,3.53565-14.834,1.83113-29.714,3.29295-44.58528,4.81283a7.25068,7.25068,0,0,1-3.91177-.47875c-1.16415-.61372-1.94091-1.9624-2.88682-2.99022,1.0409-.8793,1.95418-2.159,3.15347-2.54123,1.67309-.53328,3.55987-.396,5.90423-.59141-.5674-3.68476-1.08769-7.06331-1.724-11.19552-4.81724.26642-9.50339.02253-13.9761.88552-7.56794,1.4602-12.32129,8.7105-11.75731,16.86045a14.988,14.988,0,0,0,14.275,14.15167c11.483.42319,22.99074.13921,34.48622.28789,2.60848.03373,6.67433-1.12087,6.77057,2.92565.10647,4.474-4.15861,2.8018-6.60336,2.83068-14.32958.16919-28.662.08322-42.99338.12688-5.82966.01777-8.153,2.08268-8.08705,7.00405.067,5.00354,2.92243,7.79548,8.29615,7.81492,16.331.059,32.66353-.05238,48.99179.17115,1.84411.02522,3.66475,1.76189,5.49629,2.705-1.79241.99765-3.56934,2.82594-5.37972,2.85977-12.82693.23935-25.66076.09052-38.49232.109-5.77053.00833-8.60046,1.96695-8.7965,5.93773-.20879,4.229,3.33607,7.43087,8.77635,7.48558,13.3301.13412,26.66185.102,39.993.13717,1.33312.00351,2.83071-.37474,3.95957.10807a23.08191,23.08191,0,0,1,4.25095,3.02466c-1.38089.83893-2.74311,2.3656-4.14579,2.40376-8.326.22665-16.66139.10816-24.99364.10642-2.66629-.00055-5.3351-.07189-7.9983.019-3.93177.13418-6.99779,1.7603-7.20263,6.0248-.19342,4.02793,2.30621,6.47227,6.152,7.34277a19.08,19.08,0,0,0,4.46785.221q24.992-.40056,49.98334-.8423c13.49181-.223,24.79356-5.23745,34.38913-14.7886a14.81169,14.81169,0,0,1,9.04573-3.784,225.42762,225.42762,0,0,1,23.47167.556c1.59327.09376,3.101,1.64136,4.64824,2.5188-1.60427.96019-3.187,2.70239-4.81642,2.74721-7.65678.2104-15.32845-.16947-22.9898-.04171a7.97405,7.97405,0,0,0-5.19555,1.96363c-10.74113,11.28189-24.03888,16.41039-39.35267,16.75875q-23.98932.54573-47.98451.81937c-13.92408.15726-18.5787-5.08158-17.13477-18.96594-11.67355-3.74526-14.19691-7.68988-12.29122-19.60231-6.70761-2.1447-11.01032-6.47584-11.11712-13.96182C158.83973,267.46648,162.13836,263.47274,167.81657,261.22679Zm-3.37282-105.23546c2.16349,8.35137,3.42052,15.60629,5.94464,22.38952,3.88137,10.43061,16.47766,15.2539,27.06609,11.08361,10.8877-4.28816,15.44342-16.03394,11.12944-27.84471-4.95328-.39372-9.77834-.38336-14.44138-1.24737-5.86248-1.08624-11.533-3.22586-17.40106-4.25861C173.01942,155.45869,169.08843,155.99133,164.44375,155.99133Zm44.14191,83.25741c-2.95188-14.78192-5.84242-29.25659-8.79718-44.05293l-7.11606,1.73625c2.38871,12.71386,4.6002,24.95986,7.0186,37.16488C200.98783,240.64147,201.14841,240.60963,208.58566,239.24874Z"/><path d="M40.58805,14.82205c.47466-1.47663.83032-2.56479,1.17446-3.65658C43.93677,4.26774,48.95458.184,55.46043.0211A13.94807,13.94807,0,0,1,69.59508,10.52385c1.0426,3.929,2.91983,4.35966,6.26735,4.341,19.82914-.11048,39.65917-.05443,59.48892-.05439h4.76349C143.307,4.42251,148.13782-.096,155.58868.00155c7.38476.0967,12.11381,4.62839,14.95074,14.48675,3.20226.27084,6.53078.30889,9.7664.87662,6.7694,1.18778,11.47515,6.30861,11.61021,13.05193.22691,11.329.16739,22.667-.02564,33.99683-.02371,1.39249-1.6045,2.75845-2.46373,4.1367-1.08839-1.36082-2.98729-2.64987-3.11528-4.09575-.40568-4.5821-.14992-9.2228-.14992-14.0946H6.10762c-.08183,1.73123-.23514,3.47349-.236,5.21582q-.02181,45.25038-.00572,90.50076c.00361,9.05137,2.574,11.67205,11.496,11.68131q30.99435.0322,61.98876.0079c1.16646,0,2.47435-.33457,3.46718.08152a30.74151,30.74151,0,0,1,4.50018,2.80157c-1.44861.96809-2.85937,2.69762-4.35242,2.77191-6.31664.31425-12.65778.13772-18.99.13776-15.9971.00014-31.99433.03841-47.99125-.01624-10.38506-.03547-15.95935-5.66685-15.966-16.1044Q-.0178,88.18729.02,30.93661c.00722-10.146,5.45654-15.83316,15.61943-16.07444C23.943,14.665,32.25494,14.82205,40.58805,14.82205ZM5.88406,41.90482H186.15065c0-3.85525.03831-7.34149-.008-10.8266-.09547-7.18736-3.22992-10.39736-10.32028-10.47452-6.16548-.0671-12.33224-.01569-18.49843-.01633q-5.36008-.00054-10.72012-.00007v9.31208c2.91323,0,5.59261-.31519,8.13745.13327,1.2683.22349,2.29033,1.8451,3.42376,2.83428-1.12529.93648-2.2253,2.64619-3.38,2.68395q-11.23694.36757-22.48971.00137c-1.159-.0378-2.26368-1.7436-3.39349-2.678,1.12682-.99247,2.14148-2.62091,3.404-2.84364,2.5461-.44915,5.227-.13378,8.12926-.13378V20.85617H47.10886v9.04641c2.891,0,5.57038-.3241,8.10755.13617,1.27669.2316,2.29511,1.88759,3.4303,2.89945-1.18116.91417-2.338,2.58054-3.54743,2.61966q-11.237.36348-22.48975-.00637c-1.18024-.03854-2.307-1.71508-3.45853-2.63427,1.13158-1.00188,2.15368-2.65858,3.41741-2.86992,2.66691-.446,5.46025-.13572,8.00679-.13572V20.60769c-8.89994,0-17.39084-.14684-25.87355.05331-5.36309.12654-8.5792,3.53781-8.78729,8.91244C5.76028,33.553,5.88406,37.54332,5.88406,41.90482ZM147.20213,14.4624h16.61378c-1.00824-5.70717-4.36407-8.98231-8.69311-8.77228C150.83311,5.89824,147.761,9.21772,147.20213,14.4624Zm-100.087.34272c4.92186,0,9.4035.01963,13.88473-.01551a26.92544,26.92544,0,0,0,2.90029-.32444c-.28385-5.14679-3.314-8.50334-7.76069-8.76344C51.93574,5.45584,48.63843,8.57287,47.11516,14.80512Z"/><path d="M322.16213,95.0926c-.07588,45.53506-45.29823,77.8699-88.56738,63.2442a4.731,4.731,0,0,1-1.82055-.77979c-1.26579-1.25975-2.39851-2.65329-3.58341-3.99436,1.8214-.47682,3.91324-1.78651,5.42078-1.2968a67.13948,67.13948,0,0,0,32.50292,2.48605c25.94074-4.37661,46.42832-25.77284,49.81-52.3238,3.2761-25.7228-11.30243-51.58687-35.08125-62.23829-25.87-11.58815-54.85476-4.94784-73.43685,16.6184-1.20242,1.39553-3.69906,1.67548-5.59369,2.47437.39052-2.01579.1094-4.61054,1.27248-5.96034,17.04485-19.781,38.82472-28.16208,64.34-23.30849,26.962,5.12877,44.61428,21.76958,52.47815,48.31458a54.50387,54.50387,0,0,1,1.66354,8.29923C321.93818,89.42629,321.97738,92.2691,322.16213,95.0926Z"/><path d="M248.36761,108.68466q17.38057-16.76058,34.59184-33.35488c1.31963-1.272,2.5857-2.61411,4.00508-3.76525,4.468-3.62356,9.82541-3.44984,13.55356.35043a9.45784,9.45784,0,0,1-.08326,13.53278Q277.595,107.85213,254.37642,129.8684c-4.08735,3.87066-9.46,3.62662-13.5303-.39705q-14.57673-14.4096-28.74731-29.22831c-3.99575-4.16214-3.8688-9.63994-.19132-13.47215,3.785-3.9442,9.61291-4.1894,13.8721-.15783C233.26937,93.7026,240.546,101.01743,248.36761,108.68466Zm48.89273-29.098c.03894-3.89616-2.80447-5.657-5.58732-4.14509a17.10983,17.10983,0,0,0-3.40326,2.90123c-12.00714,11.54866-24.08069,23.03039-35.94163,34.72769-3.19131,3.14729-5.43353,3.42492-8.62444.00577-6.58933-7.06058-13.535-13.78782-20.30612-20.67961-2.08909-2.12633-4.30681-4.359-7.13309-1.46116-2.57954,2.64486-.54054,4.81171,1.4268,6.80277,8.66489,8.76932,17.372,17.49839,25.93091,26.37028,2.96568,3.07409,5.403,3.06233,8.44693.09633,14.19829-13.83472,28.51835-27.54441,42.74937-41.34572A21.31739,21.31739,0,0,0,297.26034,79.58669Z"/><path d="M33.27977,119.75877c4.503-8.18877.13293-14.44841-6.96061-20.54751-4.70685-4.047-2.02687-11.23837,4.0557-12.70567a5.44976,5.44976,0,0,1,1.48235-.19972c8.578.36945,13.65941-3.67159,16.67181-11.71966.896-2.39391,4.85439-4.91227,7.49257-5.00473,2.367-.08295,4.865,3.06548,7.26051,4.84847A2.5335,2.5335,0,0,1,63.97035,75.74c2.03865,7.18933,6.85484,10.33189,14.239,10.34059,4.00992.00473,7.55431,1.41071,8.89168,5.83912,1.34251,4.44542-.95947,7.61181-4.18766,9.83471-5.94173,4.09137-7.129,9.24144-5.22183,15.89906,1.05891,3.69654,1.2507,7.657-2.50331,10.45354-3.72523,2.77511-7.57991,1.88087-10.61838-.60777-6.9773-5.71474-12.94574-2.65322-19.45691.91454C39.03421,131.74461,32.895,127.65708,33.27977,119.75877Zm-3.1476-27.07129-.67426,1.752c2.55085,2.49419,5.01333,5.08766,7.675,7.45733,3.29629,2.93466,4.63757,6.31989,3.45045,10.69463a31.25776,31.25776,0,0,0-.89544,5.90719,40.15652,40.15652,0,0,0,.18252,4.72668c1.68344-.37141,3.67686-.28839,4.99848-1.19023,6.98619-4.76731,13.8-5.80724,21.03856-.44089,1.52511,1.13066,3.896,1.12,5.87725,1.63529.01828-2.07837.07673-4.15764.03109-6.2346a8.83883,8.83883,0,0,0-.4769-1.93242c-1.51248-5.80574-.61606-10.74545,4.5365-14.60352,2.3578-1.76544,4.21374-4.2014,6.29729-6.33326l-.74078-1.46123c-3.0399-.5739-6.06765-1.54252-9.12233-1.63663-5.72709-.17642-9.166-2.84482-11.33058-8.06161-1.1525-2.77765-3.286-5.14809-4.97677-7.70232-1.819,2.57741-4.03839,4.9653-5.36735,7.77459-2.258,4.77309-5.24341,7.81741-10.90684,7.95868C36.51737,91.07722,33.33,92.09307,30.13217,92.68748Z"/><path d="M158.2362,74.89361a37.15158,37.15158,0,0,1-.12149,6.41067c-.17792.98345-1.69766,2.53939-2.3885,2.43072-1.14366-.17989-2.93548-1.4312-3.0076-2.34524a85.45788,85.45788,0,0,1-.05184-12.8249c.069-.95773,1.90837-1.78793,2.93275-2.67684.88129,1.02261,2.26646,1.93126,2.52926,3.09375C158.55447,70.86472,158.2434,72.91432,158.2362,74.89361Z"/><path d="M142.78025,85.12312c-1.1513,1.3742-1.76261,2.7746-2.55673,2.88737a4.162,4.162,0,0,1-3.35252-1.16283A106.703,106.703,0,0,1,129.89875,76.646a3.92619,3.92619,0,0,1,.24935-3.46452c.41015-.62265,2.625-.98966,2.95994-.5837C136.41312,76.60389,139.4933,80.79565,142.78025,85.12312Z"/><path d="M180.7926,73.28851c-2.5495,4.46949-5,8.94043-7.70194,13.25384-.29726.47457-2.35.44833-3.01929-.07454a3.27391,3.27391,0,0,1-.92563-2.97336,123.229,123.229,0,0,1,6.10237-11.93914c.42774-.72712,2.33055-.91219,3.47748-.76419C179.38249,70.87589,179.88783,72.13574,180.7926,73.28851Z"/></svg>