<svg xmlns="http://www.w3.org/2000/svg" viewBox="0 0 333.35944 351.88808"><path d="M40.94381,341.45459H55.76789c0-2.99734-.03335-5.92165.00868-8.84483.04947-3.43968,1.43277-5.94272,5.20751-5.9789,3.83043-.0367,5.1399,2.564,5.24524,5.94647.08748,2.80924.01789,5.62336.01789,8.78624H79.52188c0-8.30287-.2529-16.43452.18867-24.52825a7.11755,7.11755,0,0,1,4.04987-5.13786c1.36292-.44246,3.92052,1.55029,5.3474,3.03587.81.84334.5318,2.845.5407,4.32631.04389,7.31589.02,14.63223.02,22.30137h14.73722V267.969c-1.48283-.12109-2.91218-.33719-4.34184-.33936q-24.00276-.036-48.00554-.003c-7.97757.02-11.37329,3.5346-11.39575,11.69279q-.04267,15.50538.00721,31.01091c.01649,3.83869.0995,7.91892-5.15993,7.89067-4.93635-.02647-5.01557-3.90952-4.94451-7.59259.01883-.97581-.11819-1.95461-.195-3.10228a14.53948,14.53948,0,0,0-1.93956-.57233C5.80313,303.67261-6.81221,279.899,3.82713,259.79571c5.28816-9.9921,11.63446-19.42316,17.47887-29.122,1.829-3.03517,4.47731-4.33894,7.5549-2.4839,3.41,2.05542,2.98766,5.029,1.0355,8.19427-5.68237,9.21353-11.5451,18.3394-16.72512,27.83369A21.66945,21.66945,0,0,0,30.5822,296.49316c0-6.17081-.04558-12.31571.01-18.45969.09885-10.923,5.13508-17.29776,15.56228-20.34414a5.11081,5.11081,0,0,0,2.91105-3.5229,73.22154,73.22154,0,0,0,.14667-9.98566c-.03311-3.56593,1.00222-6.55792,5.09509-6.56388,4.33062-.00629,5.42236,3.066,5.35273,6.86122-.073,3.97874-.01633,7.95989-.01633,12.03306,4.66532,1.62,8.30086.97733,9.84654-3.77846,1.57347-4.8413,4.053-10.0338,3.53524-14.78929-1.61441-14.82868-4.45941-29.52334-7.024-45.495-6.0382,6.06344-11.27964,11.246-16.4153,16.53134a56.51658,56.51658,0,0,0-4.409,5.43266c-2.12721,2.81782-4.90239,3.83773-7.79135,1.77066-3.01478-2.15711-2.79174-5.46812-.45279-7.87536,8.90779-9.1678,17.627-18.59306,27.23958-26.97823,7.734-6.74642,17.45527-10.22016,28.29982-11.70718,0-5.36061.11943-10.64462-.10079-15.91444-.044-1.054-1.19327-2.3012-2.155-3.0396-8.01051-6.15036-14.7532-13.09755-15.50892-24.49478-2.91511,0-5.5309.11045-8.13481-.01865-12.97208-.64322-20.93943-13.21066-15.62058-24.96676a8.50436,8.50436,0,0,0,.03979-7.40384C44.60427,77.56293,45.51237,61.49943,52.752,45.791c1.38824-3.01214,1.39228-4.91162-1.24163-7.24616a112.29375,112.29375,0,0,1-10.0021-10.476c-4.55747-5.23755-3.27792-10.05072,3.26721-12.32572,14.62551-5.08362,29.47-4.50581,44.37879-1.44888,1.463.3,2.92278.61585,4.3886.901.13592.02643.3049-.1172.61912-.24945a11.71614,11.71614,0,0,1-1.45229-3.07872c-.43344-2.92183-1.79644-6.64292-.5418-8.61726,1.28175-2.017,5.35485-3.49009,8.00152-3.21724C125.49779,2.64373,146.89,13.52469,164.68388,31.6865a18.46957,18.46957,0,0,0,5.94254,4.17541c15.56151,6.36946,22.24218,18.30044,18.60466,34.68987-1.76226,7.9401-4.5113,15.65738-6.62229,23.52687a7.90585,7.90585,0,0,0,.173,4.99309c6.7034,14.2688-1.15918,26.93456-16.98546,27.13628-1.81622.02315-3.633.00313-5.95967.00313-.62406,11.26765-7.46472,18.29669-15.568,24.58091a6.388,6.388,0,0,0-1.99132,4.1809c-1.17471,15.80045-1.0825,15.68737,13.6158,21.6695,7.53277,3.06581,15.23643,5.99714,22.20559,10.10491,15.64778,9.22315,24.05849,23.9271,29.0194,40.95,1.3925,4.77832,3.18883,9.43891,5.219,15.37971,3.00422-8.16408,5.62473-15.25013,8.21826-22.34609,1.65675-4.53311,3.33218-9.06081,4.89061-13.628,1.37077-4.01735,3.97855-6.37037,8.24924-6.97287,3.235-.4564,5.67568-4.85783,4.82278-8.13491-1.3957-5.36259-2.67536-10.75543-4.2778-17.24432-4.21066,0-9.62893.01122-15.04714-.00215-14.59615-.036-23.04072-10.68434-19.79361-24.94713,1.0829-4.75661,4.02977-6.84666,10.12381-6.8676,15.16826-.05215,30.33679-.01838,45.50523-.01911,1.7913-.00008,3.58263,0,5.66936,0V117.57c-5.49507-3.36161-10.99243-5.86868-15.41913-9.63478-6.51295-5.541-9.319-13.24669-9.36911-21.81974q-.09216-15.75505-.00851-31.511c.03061-6.83511,2.56065-9.50247,9.308-9.54474q21.00168-.13157,42.00457-.00357c6.91251.03995,9.44923,2.76989,9.47676,9.904q.057,14.755.00116,29.5104c-.07026,16.30724-8.634,27.36818-24.82352,31.73852v26.70579c1.81855,0,3.59251,0,5.36647,0,15.16844.00032,30.337-.03519,45.50523.01582,7.7869.02618,10.48213,2.78121,10.613,10.55772.24569,14.5918-6.23054,21.24171-20.71125,21.262-3.807.00535-7.61392.00078-11.70272.00078-.47853,6.78692-1.951,12.79985-6.9297,17.40052-4.997,4.61759-11.05357,5.83146-17.96614,5.70323-1.54381,4.16769-3.27424,8.28093-4.50659,12.53839-.329,1.13655.93806,2.69316,1.34535,4.09385.83913,2.88577,2.697,6.02717,2.14955,8.6484a63.732,63.732,0,0,1-5.62473,15.4166c-.88581,1.75881-4.122,3.47768-6.1003,3.28735-3.41185-.32827-4.21289-3.51747-3.27513-6.58057,1.351-4.41289,3.03551-8.72363,4.73789-13.53029l-29.687-10.78482c-4.17388,11.48739-8.251,22.706-12.32618,33.92523q-5.11231,14.07461-10.218,28.15164c-1.20014,3.31533-3.15236,5.88682-7.01321,4.46565-3.73423-1.37454-4.31965-4.74843-2.61483-7.86643,4.21169-7.703,3.08826-15.00053-.07048-22.75124-3.95041-9.69318-6.67784-19.89341-10.775-29.51618-4.49916-10.567-12.41408-18.33474-23.25162-24.18594-1.04988,5.45149-2.05464,10.40119-2.9483,15.37088-1.38459,7.69962-2.652,15.42037-4.04359,23.11869-2.30568,12.75478,2.6071,25.08661,13.03806,31.18013,0-5.12491-.00208-9.85988.0011-14.59484.00111-1.66716-.07132-3.34021.04149-5.00025.21694-3.19207,1.66229-5.57747,5.113-5.64559,3.72112-.07355,5.35678,2.30486,5.3707,5.80814.04772,12.00405-.39149,24.02791.16194,36.00692A58.83036,58.83036,0,0,0,197.152,311.288c9.67774,13.25387,30.58755,10.10641,36.84672-5.24053,6.15366-15.08819,11.362-30.56364,16.9062-45.8977,1.25045-3.45842,2.98179-6.47323,7.12081-5.02043,4.30339,1.51053,3.96246,4.90136,2.569,8.66592-5.4874,14.82492-10.59073,29.79373-16.19157,44.57456-9.03472,23.84293-39.26644,28.84049-55.651,9.341-.81144-.96567-1.601-1.94973-3.3265-4.05433,0,9.58139.01328,17.82143-.00348,26.06141-.01923,9.46193-2.72825,12.15673-12.23361,12.15792-44.33676.00547-88.67383.066-133.00961-.142-2.93118-.01377-7.89882-1.54976-8.37438-3.32683-1.17454-4.389-.511-9.35363-.013-14.02576.08427-.79067,3.22165-2.053,4.58872-1.70075,1.58489.40839,3.16106,2.14617,4.01333,3.705C41.11118,337.69775,40.78658,339.58018,40.94381,341.45459Zm74.29584-.09712h59.62569c0-17.83921-.45867-35.33747.19844-52.79366.31648-8.40763-1.87785-13.86206-8.89213-19.08595-12.25141-9.12425-17.07062-22.18816-14.57489-37.50426,2.14118-13.14023,4.56321-26.23491,6.66116-39.38165.22562-1.41378-.44789-3.92618-1.4455-4.41474-4.29815-2.105-8.87268-3.64527-13.57-5.47838-.665,1.4785-1.25817,2.64892-1.729,3.86664q-7.82795,20.24612-15.60412,40.51217c-1.55369,4.07586-3.93423,6.94042-8.66489,6.93645-4.75345-.004-7.1137-2.959-8.63675-6.99867q-3.52036-9.33731-7.1325-18.63992c-3.5988-9.24062-7.24392-18.46318-11.10274-28.28767-4.29208,1.5842-7.97771,3.00606-11.70717,4.30166-2.97924,1.035-3.42362,3.08182-2.89886,5.88861,1.89618,10.14187,3.75407,20.29215,5.48371,30.46355,1.66953,9.81795,4.173,19.64409.53328,29.5758-.76292,2.08183-1.4,4.2098-2.28644,6.89673,8.34063,0,15.982.05117,23.621-.06332a4.47388,4.47388,0,0,0,2.87893-1.40334c9.7985-10.817,25.08869-8.47339,30.2023,4.809,6.49582.59969,12.27716,2.96531,16.223,8.44432,5.67122,7.8747,6.03022,16.5597,2.10945,25.0958-3.76389,8.19455-10.85837,11.81253-19.81335,11.81134-6.4233-.00089-12.84662-.00018-19.47855-.00018Zm45.3396-250.60766c3.20958,0,5.093-.328,6.81269.06352,4.55972,1.038,6.21478-1.28423,7.1445-5.23061,1.37048-5.81715,3.34219-11.50357,4.51137-17.3549,2.46212-12.32207-2.125-19.54087-14.22491-23.486-1.95655-.63793-4.20483-1.61521-5.403-3.15034-9.54016-12.22373-22.293-19.85193-36.32752-25.5263-5.81-2.349-11.99931-3.75933-19.18448-5.95331,1.381,3.04284,1.9961,4.5754,2.75474,6.03326,1.62715,3.127,2.488,6.21839-.054,9.29685-2.56135,3.10187-5.80235,2.668-9.15542,1.76332-4.0099-1.08195-7.99149-2.33014-12.06022-3.12084a80.30485,80.30485,0,0,0-32.68024.02268,7.34307,7.34307,0,0,0,.77464,1.79819c2.42051,2.52133,4.8388,5.0479,7.34368,7.48449,6.53636,6.35812,6.40814,6.26628,2.41751,14.13569-7.21143,14.22067-8.0747,28.78386-2.3034,43.62311l12.3956-.71947c-1.67276-8.66259,4.02115-9.48968,10.20661-10.80794,13.18167-2.80932,25.644-8.0237,35.6138-17.10088,7.02694-6.39782,14.30151-8.36545,23.40219-7.9241,12.44029.6033,17.20682,4.437,17.95281,16.97392C160.88039,77.69017,160.57925,83.84984,160.57925,90.74981Zm-9.18256,7.28137c-.53505-10.5525-.8739-19.20481-1.50092-27.83618a6.95035,6.95035,0,0,0-2.2146-4.582c-2.61111-1.99775-14.92407-.62489-17.54591,1.62191A101.14491,101.14491,0,0,1,87.08135,89.36652c-2.59893.61353-3.59311,1.64112-3.48083,4.3146.4259,10.14038.29056,20.32425,1.21485,30.414a23.23559,23.23559,0,0,0,4.66807,11.72846,42.20287,42.20287,0,0,0,21.78228,14.29809c4.16229,1.16853,9.53806,1.13,13.426-.54347,6.456-2.77886,12.32628-7.07613,18.11857-11.19111,4.58431-3.25681,6.56392-8.29832,6.95054-13.83563C150.42135,115.09106,150.93529,105.62042,151.39669,98.03118ZM322.472,153.5644H210.02427c-.94954,8.0998,1.1542,10.83677,8.55772,10.85281q47.72946.10341,95.4593-.00122C321.36312,164.39944,323.558,161.47632,322.472,153.5644Zm-76.22885,50.44976c5.16245,1.837,9.638,3.42944,14.56742,5.18347,2.1122-5.81578,4.17247-11.21016,6.02-16.67647,1.17417-3.474,3.26206-5.22893,7.02844-4.94467a36.62213,36.62213,0,0,0,5.98791-.04285c6.75214-.60294,10.46211-5.07471,10.16429-12.32273H245.96855c-.12536,4.88135-1.08247,9.33452,3.09653,12.91409,1.03428.88593.98028,3.70846.58841,5.45233C248.90031,196.92909,247.54783,200.14612,246.24318,204.01416ZM115.01943,295.61359c7.68081,0,14.64392.30259,21.56788-.08845,6.423-.36274,10.03024-5.34281,9.90339-12.61687-.12479-7.15637-3.96377-11.87-10.75422-11.701-9.39063.23369-10.36483-.99449-10.6954-9.91272-.01-.27-.36427-.52733-.84033-1.17408-1.85718,0-4.068-.32848-6.10379.12646-1.17212.26193-2.92518,1.774-2.94478,2.75294C114.9397,273.60663,115.01943,284.21919,115.01943,295.61359ZM103.2981,158.17518c-.67754,7.37576-1.6378,13.93593-1.68219,20.50228a8.88678,8.88678,0,0,0,3.66878,6.4391c7.66323,4.76631,15.852,4.86181,23.61515.23232,1.96662-1.17277,4.0553-4.13556,4.043-6.264-.03879-6.70166-1.04979-13.39769-1.745-20.7351C122.01306,162.76366,112.662,163.03825,103.2981,158.17518ZM286.20355,56.037H246.623V74.51416h39.5806Zm-.24044,29.258H246.92877a19.20347,19.20347,0,0,0,19.0629,21.11049A19.767,19.767,0,0,0,285.96311,85.29508ZM117.29235,220.65955c3.117-8.12695,5.78435-15.0817,8.49025-22.1369H108.66116C111.45214,205.68085,114.141,212.577,117.29235,220.65955ZM73.0672,101.01632c-5.19227-.19-10.171-1.00548-12.35034,4.0075a9.82579,9.82579,0,0,0,.91275,8.11335c2.87563,4.19227,7.51966,2.46918,11.43759,2.39554Zm88.388,14.57147c4.54364.08,9.58087,1.68366,12.09863-3.25439a9.786,9.786,0,0,0-.29016-8.18451c-2.596-4.22716-7.19736-3.60165-11.80847-2.74543Z"/></svg>