<svg xmlns="http://www.w3.org/2000/svg" viewBox="0 0 352.19215 319.88888"><path d="M304.48274,284.961c-10.02756,0-19.49323.18255-28.94157-.1413-2.09817-.07191-4.99986-1.40352-6.017-3.07646-2.00325-3.29485.68154-6.68908,5.0744-6.78321,6.831-.14643,13.66726-.05176,20.50129-.05279,15.32635-.00235,30.6527-.00077,46.41151-.00077V258.46522H10.58864v16.44119h6.16124q113.76246,0,227.52494.00043c1.50014,0,3.001.03569,4.50033.00278,3.59188-.07883,5.94471,1.5022,5.82872,5.22358-.10686,3.42849-2.43314,4.88352-5.764,4.82762-1.49966-.02519-3.00023.00183-4.50037.00183q-95.01042.00054-190.02083.00033H47.6583c0,7.28858.01771,14.21478-.00419,21.14085-.032,10.1311-3.66883,13.72058-13.891,13.74861-3.33367.00913-6.66783.03515-10.001-.00678-8.47908-.10661-12.41957-4.082-12.50561-12.67828-.0684-6.83475-.04466-13.67039-.07588-20.5056a4.25958,4.25958,0,0,0-.21873-.95693C1.54923,282.46434.029,280.3018.02716,270.15082c-.00068-3.668-.07172-7.33782.01873-11.00358.17369-7.0402,4.23516-11.12738,11.222-11.33521,2.63791-.0785,5.28011-.01277,8.65346-.01277,0-7.31431-.00075-14.24845.00029-21.18255.00062-4.16819-.0706-8.338.02236-12.50416.17232-7.72287,4.432-11.91569,12.253-12.06728,4.31674-.08366,8.63644-.015,13.6922-.015,0-2.09037,0-3.85408,0-5.61778.00031-15.17217-.02876-30.34442.01207-45.51648.02421-8.99967,4.17833-13.18349,13.10692-13.25147,7.00036-.0533,14.00184.03541,21.002-.02672,3.60976-.032,6.606,1.09927,6.62446,5.06738.01812,3.88324-2.79644,5.26285-6.49339,5.22911-7.78487-.07105-15.57083-.0216-23.66876-.0216v53.75661H88.75875c0-4.876-.72109-9.97789.15367-14.78951A19.43937,19.43937,0,0,1,108.0778,170.9441c12.33079-.21459,24.674-.29057,37.00111.01316,13.376.32956,22.45282,12.74717,19.19479,25.73018-.40094,1.59767-.88716,3.17394-1.49689,5.339h26.45708c-.53464-2.0606-.98906-3.74544-1.40844-5.439a20.42109,20.42109,0,0,1,19.82709-25.66863c11.49785-.19823,23.00214-.10429,34.50293-.03481,15.6666.09462,25.07751,12.84684,20.62214,27.84379-.278.93577-.61638,1.85353-1.02485,3.07276H294.981c0-5.30073,0-10.41037,0-15.52,0-10.83726-.26171-21.68367.11667-32.50769.174-4.97835-1.54291-5.98617-6.205-5.97432q-89.50926.22765-179.01938.0961c-1.66575-.00012-3.70557.53588-4.91065-.22476-1.86579-1.17771-4.35623-3.25654-4.35922-4.95716-.0029-1.65865,2.57638-3.63461,4.42591-4.86265,1.05541-.70077,2.91773-.21371,4.41673-.21383q90.50991-.00713,181.01983-.00129c11.05161.00107,14.6441,3.60562,14.64932,14.664.00772,16.31792.002,32.63584.002,49.72842,4.72554,0,9.14718-.01987,13.56855.0041,9.42493.05111,13.47368,4.0201,13.51135,13.34382.04292,10.62135.00992,21.243.00992,32.42657,3.3453,0,6.13457-.0828,8.91734.01664,6.48859.23186,10.68725,4.20214,10.92274,10.59607.19624,5.32794.19038,10.6742.00031,16.00257-.21334,5.97976-3.20513,8.90634-11.16355,11.19971,0,7.02763.0405,14.17411-.01026,21.32-.06337,8.92222-3.94919,12.83006-12.77254,12.91-4.0001.03621-8.00262.08006-12.00083-.01569-7.29415-.17458-11.44037-4.205-11.584-11.49957C304.36626,300.71415,304.48274,293.09165,304.48274,284.961Zm-128.21357-37.17c46.65087,0,93.3019-.05328,139.95232.087,4.39811.01322,6.22709-.87648,5.96406-5.72431-.42373-7.80967-.11092-15.65915-.11443-23.4918-.0029-6.47646-.00617-6.4841-6.50956-6.48425q-131.45549-.00261-262.911-.00119c-5.66466,0-11.344.25045-16.98918-.08143-4.26231-.25061-5.92818.8734-5.71079,5.4824.3843,8.14784.381,16.33958.00208,24.48791-.21729,4.67248,1.30205,5.83975,5.86437,5.82411C82.634,247.72877,129.45169,247.791,176.26917,247.791ZM225.348,202.02387q8.24245,0,16.48487-.0001c.1665,0,.33311.0015.49952-.00354,6.72042-.20438,11.63759-4.75031,11.49807-10.62907-.13687-5.76654-4.88836-10.25-11.34346-10.31619q-16.9826-.17412-33.96805.004c-6.41405.072-11.19405,4.6665-11.25957,10.40334-.06524,5.712,4.71715,10.347,11.105,10.50307C214.02248,202.12367,219.68658,202.01437,225.348,202.02387Zm-98.93417-.00013q8.24278,0,16.48559-.00018c.16651,0,.33313.001.49951-.00427,6.70035-.21248,11.6296-4.8031,11.45937-10.67143-.16722-5.76325-4.92229-10.20976-11.3891-10.274q-16.98348-.16871-33.96957.00581c-6.40143.07327-11.17584,4.70372-11.21209,10.447-.03611,5.72253,4.73505,10.30916,11.14185,10.46011C115.088,202.12007,120.75214,202.01468,126.41385,202.02374Zm-89.575,107.27V285.36738H21.90812v23.92636Zm278.4647-24.09084v24.09347H330.2172V285.2029Z"/><path d="M344.165,66.82362c-1.24853,20.82322-12.2155,40.08274-34.89088,51.12815-22.389,10.90594-44.62444,8.92368-64.55356-6.086-19.90547-14.99184-28.13885-35.66283-23.838-60.33136,7.28695-41.796,52.17435-63.77789,89.89123-44.44575,1.47963.75838,2.91231,1.6166,4.32522,2.49528,2.77724,1.72719,4.0566,4.23883,2.38555,7.19069-1.76887,3.12464-4.57884,3.57765-7.68361,1.63067a53.24149,53.24149,0,0,0-25.953-7.97212c-26.40291-1.429-50.23772,18.882-53.57267,45.84-3.21826,26.01474,15.2309,51.79334,40.71292,56.62386,21.9152,4.15435,40.13137-2.55084,53.07823-20.61749C336.775,74.54546,337.1138,55.45529,326.87,36.183c-.8392-1.57887-2.12445-3.51576-1.79589-4.96788.39941-1.76509,2.23922-4.42476,3.5503-4.48063a8.216,8.216,0,0,1,6.10838,2.78374C340.58846,37.4446,344.1833,50.94115,344.165,66.82362Z"/><path d="M78.5817,53.64019c-4.62216,0-9.24437.01331-13.86646-.00433-3.511-.01341-6.506-.994-6.56685-5.13918-.06194-4.21659,3.01945-5.1801,6.47882-5.20261,8.83273-.05747,17.67409-.22284,26.49338.12593,2.12177.08391,5.46473,1.6155,5.92468,3.169.5683,1.91938-.66559,5.139-2.20445,6.7803C88.94293,59.65963,82.611,65.54278,76.441,71.57788l.48029,1.35319c4.53134,0,9.065.08905,13.59329-.02775,3.72241-.096,7.047.7217,7.19394,5.0002.14877,4.33255-3.12887,5.34624-6.8692,5.3318-8.66632-.03348-17.34035.18449-25.994-.14831-2.14585-.08251-5.53094-1.46532-6.008-2.98492-.60479-1.92641.527-5.2029,2.04559-6.84912,5.8474-6.33917,12.14787-12.2602,18.27945-18.33711Z"/><path d="M111.9164,110.77083c4.636,0,7.72936-.01994,10.82236.0054,3.32537.02725,5.51516,1.60075,5.58959,5.01846.07427,3.40913-2.0127,5.20238-5.35377,5.23611-7.65988.07736-15.33264.25922-22.97327-.12988a7.21575,7.21575,0,0,1-5.20935-3.53034c-.63012-1.36968.42849-4.18474,1.63125-5.59977,3.11793-3.66829,6.74351-6.90282,10.13377-10.34273,1.10377-1.11993,2.10656-2.33943,3.96016-4.41386-4.248,0-7.34252-.03194-10.43616.00859-3.39418.04446-5.67785-1.74619-5.77251-4.91742-.10355-3.46983,2.25692-5.35608,5.8445-5.35753,7.49415-.003,14.9965-.1881,22.47655.1373,1.81973.07917,4.589,1.49335,5.08333,2.92762a7.41493,7.41493,0,0,1-1.38807,6.1568C122.1482,100.78094,117.46684,105.15387,111.9164,110.77083Z"/><path d="M279.84649,71.71294c5.66236-8.72419,11.16959-17.21417,16.68364-25.69973.81545-1.25488,1.39632-3.07569,2.55487-3.60248,2.01231-.91505,5.35733-2.11945,6.386-1.21112,1.48891,1.31466,2.5564,4.92018,1.78175,6.63416-2.03263,4.49742-5.14842,8.50717-7.85259,12.69834q-5.95107,9.22365-11.93276,18.42749c-3.65756,5.61944-4.89113,5.94726-10.93324,2.7394-6.7543-3.586-13.4714-7.24223-20.20543-10.86646-3.06774-1.651-5.3997-3.82016-3.3612-7.53433,1.949-3.55111,4.99516-3.26258,8.166-1.56134C267.25538,65.02129,273.39358,68.27512,279.84649,71.71294Z"/></svg>