<svg xmlns="http://www.w3.org/2000/svg" viewBox="0 0 330.04203 330.12256"><path d="M-468.98393-76.77013c2.80426-2.63594,5.10183-5.05525,7.66112-7.15567,10.28984-8.44487,21.7443-10.59044,34.05853-5.26219,12.18777,5.27352,18.23675,14.8752,18.87365,28.15975a7.03548,7.03548,0,0,0,3.47165,4.92836q58.27,27.85465,80.77424,88.305a144.088,144.088,0,0,1,9.06811,49.87005c.1572,38.8315.06656,77.664.0766,116.4961.00049,1.9686,0,3.93719,0,6.43783,1.8418,0,3.28366-.02877,4.72406.00547,4.0274.09576,6.20688,2.1665,6.24707,6.20074q.102,10.24864.003,20.499c-.03244,4.02179-2.15195,6.24475-6.18686,6.25538q-26.749.07031-53.4982.0025c-4.32766-.01065-6.299-2.44663-6.28888-6.67514.01557-6.49976.02515-12.9997-.00436-19.49936-.02051-4.515,2.14008-6.81388,6.69134-6.79526,1.28528.00528,2.57065.00079,4.12244.00079.07633-1.74447.18265-3.044.1828-4.34344.00434-36.33222.24967-72.66669-.07916-108.99594-.31479-34.77634-12.71027-64.64592-38.01679-88.823-10.49469-10.02632-22.77291-17.24547-36.24765-22.56166-2.92735-1.15493-4.81787-.59-6.99844,1.58562Q-451.31627-7.19339-462.65187,3.37689c-5.2664,4.92-7.43265,4.90772-12.74329-.0553q-11.319-10.57807-22.30017-21.5138c-2.21492-2.218-4.14567-2.67338-7.01491-1.51144-38.50613,15.59353-61.54558,44.41135-70.96111,84.25086-2.46047,10.41089-3.06393,21.43466-3.18565,32.19208-.38654,34.16125-.143,68.32965-.143,102.49527v5.76971c1.79784,0,3.09267-.0011,4.38749.00019,4.581.00457,6.64326,2.39639,6.61883,6.874-.03456,6.33291.05424,12.667-.02754,18.99911-.06809,5.27137-1.92967,7.08927-7.35472,7.104q-25.749.07-51.49831-.0051c-5.27566-.018-7.05272-1.92062-7.11063-7.34292-.0623-5.83249-.03606-11.66626-.00916-17.4993.02968-6.43595,1.509-7.947,7.84438-8.13886.83008-.02511,1.65917-.08236,3.14963-.15848v-5.84045c0-36.665-.24431-73.332.05326-109.99461.5417-66.74282,30.5164-115.322,90.38831-145.286a6.63717,6.63717,0,0,0,2.96474-4.80123c.587-13.0754,6.53993-22.59745,18.45193-27.92928,12.22931-5.47384,23.73624-3.551,34.12885,4.79422C-474.30656-82.04718-471.90237-79.49771-468.98393-76.77013ZM-590,204.80463c0-10.98966-.07158-21.46607.01339-31.94117.25658-31.63269-.95292-63.37217,1.26006-94.86972,2.674-38.0594,20.59569-69.12268,51.33731-92.08333,8.2694-6.17634,17.72278-10.76743,27.7305-16.74156l-18.19835-14.47463c.61626-1.22448-.16592-.95377-.89779-.58359C-581.96926-18.974-610.27831,24.24551-611.80463,83.87837c-.99693,38.94977-.19487,77.94567-.18406,116.92092.00036,1.27862.16,2.55719.25676,4.00534Zm263.99933-.05136c0-1.49436.00021-2.6287,0-3.763-.008-39.47589.37167-78.95675-.13318-118.42631C-326.63861,43.10643-341.4231,9.383-369.43716-18.41959a135.84138,135.84138,0,0,0-41.96994-28.3777c-5.65055,5.92186-10.9975,11.52553-16.57865,17.37467,13.542,5.55526,25.7207,12.67387,36.26941,22.30767,28.30881,25.85341,42.81006,58.23211,43.52261,96.33988.6818,36.46519.177,72.95256.19361,109.43019.00088,1.95306.00012,3.90613.00012,6.09815ZM-468.98834-5.64417c15.1437-14.64862,29.9945-28.74552,44.44125-43.245,2.492-2.50111,4.04624-6.57427,4.67908-10.16033,1.41311-8.00752-2.555-15.05328-9.77292-19.13427a20.5269,20.5269,0,0,0-23.40295,1.75819c-3.84906,3.16854-7.36361,6.75144-10.94877,10.23022-3.38352,3.28314-6.60525,3.30973-9.99861-.0012-3.57519-3.48831-7.087-7.07929-10.95283-10.22432a20.92507,20.92507,0,0,0-28.5,2.19094,18.42542,18.42542,0,0,0,.25979,25.76244C-498.79272-34.14456-484.03918-20.18539-468.98834-5.64417Zm-153.78911,232.296h43.54918V216.26245h-43.54918Zm264.16014-10.45526v10.56632h43.3252V216.19653Z" transform="translate(634.02319 92.10399)"/><path d="M-491.13852,204.66391V172.964c-5.34369-1.47772-10.22729-2.87091-15.14151-4.146a3.79677,3.79677,0,0,0-2.68591.174c-7.06024,4.5336-13.86728,3.65708-19.53691-.198-4.82676,1.19561-8.779,2.9595-12.74761,2.997-8.72185.08255-15.48671-7.08249-15.678-16.16727-.22438-10.65839-.14642-21.32587-.0309-31.98757.05846-5.39462,1.60013-6.30056,10.95944-6.86416,0-8.04837-.01372-16.155.00417-24.26157.01547-7.01346,1.48324-8.48141,8.46629-8.50708,4.64388-.01706,9.28786-.00323,14.1682-.00323-1.56275-8.036.01251-14.65676,6.805-19.16629,6.84181-4.54225,13.57-3.3064,20.075,1.05439,6.74063-4.58024,13.67395-5.60415,20.524-.73448,6.25584,4.44722,7.92652,10.78726,6.29023,18.48413h11.71c0-5.06854.05347-10.07783-.01349-15.08551-.08423-6.29944,2.20131-11.38224,7.56319-14.84068,5.35708-3.45535,11.06717-3.72595,16.571-.67245,2.49984,1.38688,4.1242,1.3988,6.64843.01461,6.09464-3.34205,12.30146-2.78842,17.79288,1.497,5.30649,4.14105,6.96692,9.73069,6.08426,16.44543-.48062,3.65657.274,7.46138.29132,11.20018.05322,11.45744.01935,22.91528.01935,34.81424,1.92673,0,3.3826-.03467,4.8363.00676,3.76194.10718,6.06818,2.01589,6.10047,5.80771.09643,11.32787.48117,22.68385-.14566,33.979a16.10182,16.10182,0,0,1-23.8787,13.19424c-2.46069-1.29706-4.08349-1.60418-6.64471-.10141-5.78119,3.392-10.55454,2.7432-17.35513-.86575l-17.71082,3.58386v30.97284c5.66371,2.40466,11.35088,3.96,16.06168,7.01886,7.23843,4.70029,10.72659,12.07105,11.13507,20.75363.20355,4.32559-1.98752,6.606-6.263,6.6124q-37.73713.05667-75.47435-.016c-4.333-.01078-6.16443-2.52719-6.08909-6.7934.19952-11.29785,8.99215-22.35956,20.15506-25.11529C-496.02951,205.49432-493.73178,205.16055-491.13852,204.66391Zm-54.84523-76.48624c0,9.29166-.04033,18.09458.02095,26.89676.02274,3.26673,1.73967,5.49237,5.02518,5.77957,3.322.29041,5.37158-1.68133,5.838-4.89694.49358-3.40262,2.01778-5.83374,5.5985-5.83246,3.58117.00125,4.67692,2.612,5.75862,5.77262.69681,2.03607,3.37588,4.67007,5.19006,4.68826,1.81293.01819,4.57907-2.56989,5.27109-4.58441,1.07638-3.13342,2.07588-5.80509,5.67023-5.87222,3.58664-.067,4.75261,2.484,5.84808,5.65948.70988,2.05774,3.10718,4.4632,5.14731,4.91623,3.12887.69473,5.14181-1.78854,5.572-5.018.42711-3.20675,2.00531-5.452,5.32178-5.55566,3.59195-.1123,5.28932,2.18475,5.7684,5.61185.45112,3.227,2.49469,5.6885,5.61836,4.95913,2.03641-.47546,4.38788-2.90026,5.10338-4.96887,1.10148-3.18454,2.30487-5.70459,5.8925-5.60159,3.5968.1033,4.81664,2.66687,5.4912,5.98257.88723,4.36112,5.116,6.29853,8.18509,3.80954,1.364-1.10617,1.5825-3.52392,2.78929-4.95,1.56364-1.84778,3.4766-4.36423,5.46235-4.585,1.58507-.17618,4.4773,2.34763,5.06082,4.21347,1.03492,3.30923,1.955,6.26523,5.84656,6.26642,3.89228.00122,4.81369-2.95322,5.84757-6.26389.58276-1.86609,3.3132-4.20889,5.09948-4.2286,1.78266-.01972,3.67868,2.50479,5.34034,4.10556.479.46145.02429,1.92917.50644,2.34362,1.74743,1.50211,3.7937,3.90265,5.57,3.775,1.77838-.12775,4.72888-2.80606,4.8151-4.48694.47366-9.23608.22607-18.50916.22607-27.93552Zm11.21462-11.52481h32.37341V95.259h-32.37341Zm76.67254-21.3475h-32.54979v21.30142h32.54979ZM-506.3204,226.60675h63.6754c-3.17577-6.87488-8.12056-10.36191-14.97664-10.50879-11.289-.24194-22.592-.266-33.8792.015Q-501.72533,216.36753-506.3204,226.60675Zm36.94484-21.80969V171.69958H-479.719v33.09748Zm22.722-120.57266v32.37011h10.39291V84.2244Zm21.91769.0034v32.45364H-414.35V84.2278Zm-9.04089-16.69454c-3.5147-2.54354-5.4-4.92155-7.60386-5.267-3.3657-.52753-5.587,1.9505-5.486,5.45015.09363,3.2419,2.31627,5.58548,5.42276,5.02785C-439.21211,72.34369-437.3205,70.04822-433.77679,67.53326Zm22.00177-.207c-3.58805-2.45065-5.5242-4.71852-7.76386-5.074-3.107-.49314-5.30264,1.88711-5.33261,5.13248-.03226,3.49247,2.219,5.94216,5.58557,5.34379C-417.08731,72.33775-415.24661,69.93307-411.775,67.32623Zm-88.00477,11.18138c-3.52142-2.53454-5.39692-4.84047-7.62611-5.258-3.1064-.58182-5.33725,1.75322-5.45782,4.9892-.13051,3.50215,2.08625,5.99,5.44613,5.49256C-505.21233,83.40491-503.31018,81.03134-499.77979,78.50761Zm22.00315-.00055c-3.51656-2.52629-5.41382-4.90173-7.6236-5.24087-3.36534-.51648-5.5807,1.96928-5.46525,5.46994.10684,3.24014,2.33445,5.57767,5.44081,5.00728C-483.194,83.33382-481.3105,81.03311-477.77664,78.50706Z" transform="translate(634.02319 92.10399)"/></svg>