<svg xmlns="http://www.w3.org/2000/svg" viewBox="0 0 352.23288 351.53332"><path d="M333.31237,208.7623c9.72666,1.49188,9.7189,1.4919,9.73072,12.07439.005,4.5.044,9,.09049,13.49983a2.98051,2.98051,0,0,0,.31234.91065c.27254.16159.53272.455.807.4688,8.90133.44886,7.82831-.21769,7.85519,8.532.022,7.16867-.26149,14.3509.09886,21.50147.23668,4.69638-1.09738,6.98354-6.04863,6.33491a18.45885,18.45885,0,0,0-3.11884.22877c0,1.898,0,3.66164,0,5.42528q-.00023,32.75952-.00467,65.51906c-.00369,7.05975-1.13955,8.26662-7.98429,8.26738q-158.96788.01709-317.93576-.00012c-6.81859-.00073-7.94882-1.21224-7.95227-8.29358q-.01586-32.50944-.00425-65.0189c0-1.81356,0-3.62716,0-5.18784-.62807-.43729-.88327-.76615-1.16094-.78639C-.221,271.63891.04749,273.35657.07992,263.72729c.02583-7.66881.19143-15.34415-.07232-23.00395-.13315-3.86661,1.48246-5.08108,4.97509-4.87,1.49415.09026,2.99846.01087,4.49815.01087q109.97778-.00037,219.95555-.00019c1.97608,0,3.95219,0,6.60907,0,0-6.28966-.00583-12.22878.00144-18.1679.00949-7.73356.22737-7.95235,8.10677-8.60286a12.21528,12.21528,0,0,0,1.84127-.44053c-3.14993-8.52429-3.14993-8.52462-11.41215-8.52481q-18.99615-.00041-37.9923-.00027c-1.16643,0-2.33322-.022-3.49924-.0009-3.555.06435-6.66774-.9682-6.53367-5.05907.12132-3.70182,3.0426-4.69862,6.4403-4.68145,10.99748.05559,21.99543.0173,32.99321.01558,3.97409-.00061,7.94819-.00011,12.437-.00011a37.192,37.192,0,0,0-.69845-4.1785c-2.16276-7.30413-.6479-9.34376,7.11348-9.34652q42.74135-.01521,85.48272-.00411c1.833,0,3.667-.03873,5.49869.011,5.60484.15214,7.55479,2.67977,5.78311,8.12259C339.04412,192.88146,336.16181,200.653,333.31237,208.7623Zm-.41623,132.84526V272.38329H19.30017v69.22427ZM8.49632,262.2621H343.70186V245.896H8.49632Zm322.57882-75.09472H247.99958c1.52542,4.13748,2.76117,7.74173,4.176,11.2742,2.96489,7.40288,8.00508,11.15816,16.47074,10.8931,14.2845-.44723,28.59577-.286,42.89041-.05255,6.6336.10837,11.24965-2.58906,13.98351-8.39862C327.55213,196.56546,329.12616,192.03173,331.07514,187.16738Zm-85.1883,48.33182h87.05447V219.24007H245.88684Z"/><path d="M163.71382,193.23275V155.99839c-2.28178,0-4.37713.09278-6.46175-.01731-6.38346-.33717-10.51961-4.035-10.62346-10.26781q-.32493-19.501.01318-39.01067c.10618-6.02687,4.19329-9.92756,10.21943-10.09q11.73955-.31642,23.49333-.00886c6.32516.163,10.26951,4.05524,10.37157,10.471.20154,12.66818.18648,25.34335.01926,38.01245-.09118,6.90838-4.0538,10.61189-11.02737,10.91358-1.81134.07835-3.62894.01177-6.292.01177,0,3.48275-.00015,6.574,0,9.66517.00052,9.83705.06511,19.67482-.04262,29.51068-.02738,2.49891.62073,3.74071,3.20478,4.671,8.04671,2.89679,11.477,8.14924,11.546,16.72776.02411,3.00043.507,6.14389-.24,8.95012-.4656,1.749-2.7876,4.07379-4.37534,4.15282-1.591.07921-4.34962-2.05489-4.74627-3.6729-.813-3.3165-.34832-6.93832-.48307-10.43162-.16081-4.16862-2.40815-6.62936-6.531-6.71521-8.29932-.17285-16.60475-.05147-25.57678-.05147,0,5.30085-.0363,10.24074.01235,15.17981.03427,3.47745-1.10241,5.98807-5.02191,5.9572-3.72011-.02929-4.73522-2.69631-4.78765-5.77112-.108-6.33385-.09928-12.67169-.0132-19.00618.058-4.26989,2.279-6.36995,6.64488-6.23076,3.47064.11064,6.94763.02231,10.68632.02231-.71513-6.42878-4.06045-10.40768-9.48022-12.159-10.28049-3.322-20.68876-6.26052-31.10813-9.12464-1.32029-.36294-3.22452.34577-4.52226,1.121-11.14823,6.65944-22.2773,13.3566-33.24378,20.30826a7.29776,7.29776,0,0,0-2.82709,5.07676c-.34081,6.31744-.12971,12.66431-.14117,19-.006,3.32374-.17684,6.74659-4.66952,6.75123-4.74361.00489-4.90346-3.51568-4.88587-7.05926.03725-7.50267.17877-15.011-.05918-22.50624-.12187-3.83862,1.27073-6.26715,4.60853-8.01871,3.067-1.60942,5.94114-3.58661,9.63713-5.85381-5.12092-3.15063-9.62476-6.09318-14.32323-8.6822-1.06958-.58938-2.88687-.22043-4.23354.158-9.12409,2.56363-18.21385,5.24953-27.31548,7.89325-8.13578,2.36318-12.14242,7.54575-12.23963,16.0623-.07992,7.00176-.04146,14.00516-.01716,21.00772.01246,3.587-.36236,7.023-5.03493,6.99008-4.39973-.031-4.75425-3.31076-4.74115-6.71315.02824-7.336-.07511-14.67347.03392-22.008.18178-12.22779,7.16432-21.10557,18.973-24.504,8.78889-2.52934,17.56823-5.1,26.28639-7.85919,1.4542-.46024,3.64775-1.98208,3.644-3.00657-.01059-2.902.00864-7.323-1.73425-8.46-14.20684-9.26846-19.56652-22.51528-19.06855-38.84223.12193-3.99779.04835-8.00278.00865-12.0039-.03212-3.23684.73813-6.62485-2.57314-9.09536-.78927-.58887-.7954-2.46411-.84654-3.76013a65.28108,65.28108,0,0,1,.00371-8.99689c.65808-6.61576-.48834-11.3613-7.053-15.54166C16.74262,62.75218,14.54119,48.7071,19.88357,36.68344,25.98884,22.94281,38.983,15.71926,54.45468,17.91576c3.21426.45632,4.59035-.37328,6.26286-2.97724a31.55506,31.55506,0,0,1,53.27363-.59438c2.035,3.02106,3.99738,3.5087,7.28008,3.28741,23.88211-1.6099,41.77948,22.3982,31.77032,42.98713-2.116,4.35264-6.4182,7.89091-10.33689,11.02323-2.34964,1.87813-3.6006,3.37846-3.43372,6.40022a77.92279,77.92279,0,0,1-.065,12.9874c-.32611,2.88421-1.90375,5.61421-2.79824,8.45207a15.176,15.176,0,0,0-.82334,4.26225c-.09176,6.66814.01482,13.339-.07187,20.00724-.18268,14.0517-6.07717,25.16741-17.94206,32.63748-4.169,2.62476-2.76525,6.09581-2.5564,9.22192.08652,1.295,2.63288,2.95019,4.36318,3.51715,6.47409,2.12146,13.024,4.06,19.63685,5.69789C149.8189,177.50168,159.12163,181.95428,163.71382,193.23275ZM86.38062,66.65455V66.6393c12.83394,0,25.66917.1128,38.5014-.03539,10.42522-.12039,17.77963-4.476,20.15883-11.78293,2.58376-7.9351.23409-14.90576-5.19523-20.72911-6.24022-6.69311-14.12466-8.59707-22.84287-5.8889-3.97281,1.23408-6.71967.97268-8.39973-3.32145-3.78854-9.68325-10.94373-15.20361-21.37-15.033-10.41764.17044-17.421,5.85941-20.83063,15.71889-1.41013,4.07762-3.99379,4.8471-7.82108,3.65358a36.68494,36.68494,0,0,0-8.67148-2.048A21.86537,21.86537,0,0,0,27.1605,47.69344c-.57731,11.39845,6.79861,18.3105,20.21886,18.923,1.49733.06833,2.99961.03646,4.4996.03678Q69.12979,66.65688,86.38062,66.65455Zm-39.215,33.24651c0,8.44015-.12033,16.39309.02557,24.34111.28554,15.55479,11.76254,27.50447,27.29076,28.1728,7.9702.343,15.98152.3656,23.94888-.00841,12.34479-.5795,21.20869-6.86249,25.47454-18.38356,4.07663-11.01,1.6018-22.59,2.08307-34.12194ZM43.51484,89.49017h85.626V76.33964h-85.626Zm137.35062,56.48365V106.732H156.63218v39.24182ZM68.46877,161.99963c-1.32685,5.08811-.1312,8.4409,4.61451,10.70572,4.612,2.201,8.85021,7.17649,13.27955,7.20861,4.39724.03189,8.67086-4.91724,13.28691-7.06058,4.96705-2.30631,6.3665-5.645,4.69977-10.85375Z"/><path d="M253.48243,165.27366a32.99653,32.99653,0,0,1,1.44811-3.64336c2.26056-3.92867,1.66063-7.46019-.87885-11.11685-4.16133-5.992-4.22567-14.812-.40106-20.22738,2.0629-2.92092,4.71124-5.36507,8.29221-2.85855,3.33,2.33084,2.21169,5.12534.05662,8.1606-2.45036,3.45111-1.60783,7.10769.80343,10.61959,4.43291,6.45627,4.47927,16.06717-.04336,20.95962-1.23249,1.33327-3.84042,2.41149-5.48118,2.05574C255.717,168.88453,254.59452,166.51972,253.48243,165.27366Z"/><path d="M320.4628,156.86649c-1.74312,3.93152-2.92381,7.76288-5.10178,10.90153-.81137,1.1692-4.57516,1.63235-5.863.75592-1.34678-.91654-2.44727-4.44663-1.71955-5.763,2.74991-4.9739,1.867-8.98536-1.16315-13.42007-3.91629-5.73145-3.15726-15.35662,1.1351-20.15639,2.16853-2.42488,4.76548-4.03393,7.77725-1.53547,2.72531,2.2608,2.15724,4.81873.1066,7.43882-2.71865,3.47362-2.05344,6.90783.0514,10.61324C317.59627,149.06462,318.77923,152.84188,320.4628,156.86649Z"/><path d="M284.92373,101.15407c4.93475.13484,7.21587,4.42394,4.70765,7.59926-3.5402,4.4818-2.80137,8.28792.16471,12.65378,4.22046,6.2122,3.95512,12.83014.45377,19.33228-1.64017,3.04587-4.29306,4.49033-7.46753,2.67641-3.05218-1.74407-2.80863-4.48689-1.11886-7.32332,2.32846-3.90857,1.48989-7.45266-1.07021-11.09076-4.20114-5.97012-4.24625-14.84906-.164-20.15206C281.74874,103.13554,283.8426,102.01813,284.92373,101.15407Z"/><path d="M83.58367,215.18179c-1.16862-1.85006-3.42614-3.8437-3.20654-5.51069.23-1.74593,2.83865-3.17817,4.40764-4.74752,1.53593,1.60489,4.1,3.08749,4.30946,4.85018.197,1.65775-2.09075,3.61107-3.28528,5.43435Q84.69633,215.19491,83.58367,215.18179Z"/><path d="M85.74114,220.01206c1.22271,1.7884,3.54419,3.69553,3.36747,5.33272-.18692,1.73161-2.75222,3.20624-4.27864,4.79311-1.585-1.52986-4.19847-2.9061-4.45631-4.63417-.2423-1.624,2.00295-3.61944,3.1537-5.45145Z"/><path d="M259.64191,335.78808a28.86079,28.86079,0,0,1,.205-57.72036c15.78121-.026,29.11013,13.30215,29.01387,29.012A29.0281,29.0281,0,0,1,259.64191,335.78808ZM240.8844,306.71026A18.84863,18.84863,0,0,0,259.46068,326.073a19.12641,19.12641,0,1,0-18.57628-19.36277Z"/><path d="M121.14038,306.926a28.73187,28.73187,0,0,1-28.89261,28.86141c-15.92513-.03368-29.1-13.25082-28.91234-29.00511a29.29751,29.29751,0,0,1,28.80419-28.714A28.96838,28.96838,0,0,1,121.14038,306.926Zm-9.83824.06879a19.007,19.007,0,0,0-18.84223-19.16951,19.126,19.126,0,1,0-.0173,38.25157A18.85848,18.85848,0,0,0,111.30214,306.99475Z"/><path d="M176.31243,335.78881A28.86095,28.86095,0,1,1,205.06588,306.635,29.03386,29.03386,0,0,1,176.31243,335.78881Zm18.797-28.83619a19.01245,19.01245,0,1,0-18.85291,19.12331A19.0816,19.0816,0,0,0,195.10946,306.95262Z"/><path d="M86.4105,145.16346c-4.36534-1.96026-8.49545-3.2798-11.92115-5.628-1.29184-.88549-1.96637-4.848-1.07874-6.1403.92237-1.3429,4.71753-2.259,6.13384-1.43361,4.925,2.87016,9.176,2.77156,14.0389-.09145,1.35522-.79786,5.25279.0457,5.8013,1.18664.8195,1.70466.50155,5.518-.73717,6.35607C95.07675,141.8285,90.80277,143.20361,86.4105,145.16346Z"/><path d="M100.10834,115.25329c-.12353-3.44147.51038-6.5296,4.76393-6.599,4.2719-.06969,4.96884,3.07083,4.9832,6.4657.01489,3.52276-.44639,6.95291-5.086,6.824C100.49451,121.82512,99.97577,118.668,100.10834,115.25329Z"/><path d="M72.34837,114.65605c.0041,4.18339-.44514,7.26071-4.56254,7.29837-4.70648.04309-4.9858-3.3696-4.98488-6.95425.00092-3.56153.80928-6.53437,5.09739-6.338C72.36467,108.86669,72.29713,112.37313,72.34837,114.65605Z"/></svg>