<svg xmlns="http://www.w3.org/2000/svg" viewBox="0 0 351.78208 351.8276"><path d="M170.47282,18.64368c-9.88224,5.5602-18.76421,11.52414-28.41087,15.73717-11.68883,5.10492-23.98772,8.837-36.09912,12.93719-4.206,1.4239-5.72145,6.07424-3.16192,9.93319,1.75815,2.65071,2.64975,5.86476,4.31238,8.5932a100.906,100.906,0,0,0,6.59779,9.32642c4.99878,6.43017,10.68277,12.40172,15.08384,19.2091,15.60033,24.12993-2.19762,51.03977-27.74693,53.63242-19.34433,1.963-35.52816-7.604-41.44854-24.24347-3.85833-10.844-2.01682-21.19115,4.45689-30.40093,5.05947-7.19779,11.16381-13.65264,16.49523-20.672,2.03426-2.67835,3.18546-6.022,4.78382-9.0388,1.00013-1.88764,2.11555-3.71409,3.121-5.599,1.05259-1.97331,2.03554-3.98376,3.68444-7.22856-3.78728.44683-5.85622.72537-7.93244.93-9.94023.97978-19.90116,1.79085-29.80732,3.03843a7.74518,7.74518,0,0,0-5.1431,3.4033C43.18961,69.48584,37.48414,80.965,31.6046,92.352c-1.57378,3.04793-2.74816,6.92087-7.26024,6.39334-4.41585-.5163-4.86726-4.32591-5.72865-7.76567-2.909-11.61647-5.83692-23.23013-9.00313-34.77755A5.43571,5.43571,0,0,0,6.117,53.03953c-3.7217-.78883-6.60073-2.31789-6.04907-6.4536.60339-4.52358,4.16567-4.7098,8.001-4.63292,19.29266.38672,38.59127.48372,57.88292.90614,4.52188.099,6.33682-1.90751,7.57965-5.97369,3.25633-10.65378,6.7627-21.24152,10.5898-31.70176C84.89,3.083,87.33769.59374,89.34311.25636c1.69334-.28487,4.52957,1.857,5.71587,3.67246q8.19343,12.53862,15.65251,25.55123c1.78614,3.10074,3.24842,4.07742,6.97269,2.77681,19.67078-6.8696,38.1073-15.819,53.58029-30.09876,3.12757-2.88638,6.11927-2.87114,9.24778.00783,15.48877,14.25334,33.89939,23.258,53.59227,30.07434,3.3364,1.15483,4.96057.72262,6.72534-2.32832,5.00065-8.64511,10.17008-17.20422,15.63429-25.561,1.2774-1.95359,4.24322-4.37643,5.96881-4.05958,2.0867.38315,4.51385,3.144,5.34567,5.4079,3.89914,10.61173,7.41526,21.3702,10.81156,32.15706,1.04926,3.33263,2.611,4.98555,6.26145,4.92554,19.46036-.31987,38.923-.49811,58.38481-.73258.66525-.008,1.32944-.095,1.99438-.14124,3.49018-.24268,6.04163,1.17273,6.49271,4.722.45609,3.58872-1.79883,5.84639-5.17026,6.07386-3.17532.21426-4.09881,1.64313-4.77743,4.47767-2.82676,11.80739-5.73108,23.606-9.09513,35.267-.70093,2.4296-3.18518,5.42269-5.39578,5.9794-1.61234.40606-4.95762-2.311-6.09845-4.41295-6.42921-11.846-12.37168-23.95521-18.64045-35.89047-.73169-1.39315-2.3599-3.10685-3.72428-3.25277-12.38806-1.325-24.80991-2.33445-38.63276-3.56146,1.199,2.54721,2.122,4.68455,3.20224,6.73927.68765,1.308,2.15308,2.419,2.33469,3.74625,1.03024,7.52832,6.68552,11.99973,10.97788,17.41214,4.33566,5.467,9.10748,10.73989,12.51669,16.76115,9.81727,17.3389,4.17749,36.81467-13.01965,46.95711-19.87232,11.72022-46.76592,3.9534-56.01458-16.24872-5.71133-12.47548-3.1886-24.11692,4.30863-34.90448,3.504-5.04178,7.71915-9.58953,11.61542-14.35837,3.84729-4.70883,8.48047-8.76091,9.42691-15.46445.51459-3.64454,6.02356-5.698,4.34818-10.39746-.53226-1.493-1.8598-3.455-3.18762-3.79969-22.7574-5.90833-44.20485-14.6267-63.27322-28.65283a12.39419,12.39419,0,0,0-2.31976-.80682c.79687,1.56769,1.16351,2.47012,1.68323,3.27351,1.06781,1.65059,2.93548,3.13739,3.20559,4.88735,1.00806,6.53161,5.42725,10.85665,9.18925,15.675,4.09369,5.2431,8.47662,10.3297,11.96826,15.95912,7.45722,12.02287,8.04,24.57572.64618,36.86863-7.55313,12.5577-19.20224,18.17012-33.60432,17.74013-22.93331-.68471-40.031-22.00026-34.0816-43.48668,2.098-7.57684,7.33378-14.38054,11.65223-21.21146,2.64824-4.18893,6.50456-7.59729,9.3763-11.66805,1.75439-2.48693,2.5629-5.62132,3.992-8.36292C166.68916,24.98056,168.47276,22.111,170.47282,18.64368Zm79.10784,117.96383c2.58685-3.00232,5.36231-4.82491,5.85755-7.13608.69006-3.22066-1.75873-5.14295-5.29081-5.79a13.546,13.546,0,0,1-6.36423-3.12349c-2.71667-2.46565-5.28427-3.62161-8.20941-.90867-2.84589,2.63945-2.58377,6.19784.04358,8.30891C239.56729,131.132,244.25552,133.38691,249.58066,136.60751ZM168.14222,100.0869q.40164-.62022.80322-1.24047c3.612.17672,6.43143-1.15181,6.76716-4.985.33453-3.81973-2.13746-5.41642-5.7768-6.08929a12.12857,12.12857,0,0,1-5.94849-2.9728c-2.56656-2.48551-5.15082-3.25782-7.92111-1.08938-3.08432,2.41426-3.02979,6.01587-.38971,8.26241C159.42157,95.15923,163.94907,97.42661,168.14222,100.0869ZM91.33885,135.03973c1.1534-1.36675,3.75559-3.15978,4.36585-5.4773.90439-3.43467-1.54248-5.11357-5.08091-5.90228-2.54292-.56679-4.93811-2.293-7.11065-3.89366-2.47451-1.82314-4.80024-2.37728-7.225-.32093-2.29415,1.94555-2.93609,4.30866-1.28406,7.10068C78.31564,132.14306,83.70672,133.93862,91.33885,135.03973Z"/><path d="M192.38377,288.79586c0,18.33975.00418,35.82761-.00207,53.31543-.0025,7.0112-1.69907,9.87668-5.71109,9.70942-3.79734-.15836-5.27723-2.83838-5.28022-9.63441q-.01048-23.74635-.00329-47.49268c0-1.78888,0-3.57776,0-5.6225H170.64494c-.0918,1.93518-.24662,3.70755-.24887,5.48014q-.02927,22.74651-.01175,45.493c0,1.33313.01306,2.6665-.008,3.99936-.08227,5.21487-2.03491,8.05529-5.63443,7.73263-4.53327-.4064-5.40149-3.617-5.37244-7.52313.0719-9.66465.01932-19.33017.01816-28.99537-.00107-8.62662-.00021-17.2532-.00021-26.46191-2.46064,0-4.41242,0-6.36417,0-38.16081-.00015-76.32191.06461-114.482-.10369a26.9187,26.9187,0,0,1-11.02541-2.40143c-6.28224-2.95706-9.61226-10.88126-8.075-17.27054,1.91431-7.9564,7.67705-13.09272,15.44479-13.161,16.66283-.14663,33.32774-.05664,49.9918-.06326,1.79345-.0007,3.58689-.00006,5.91335-.00006a97.70788,97.70788,0,0,0-.11012-9.85416,5.1831,5.1831,0,0,0-2.3319-3.23321c-5.92-3.66675-8.75311-8.79206-8.59183-15.80952.18756-8.1611.00713-16.33.05588-24.49515.03394-5.68364,1.73337-7.3576,7.52724-7.41757,5.99843-.06209,11.999-.08028,17.99679.00749,5.14367.07526,7.37279,2.20458,7.43037,7.24906.097,8.49748.661,17.06651-.24812,25.46727-.47893,4.42554-2.55789,10.15448-5.87982,12.44718-4.89242,3.37658-5.07017,7.10876-4.83576,11.76712.0566,1.12488.15974,2.2474.2585,3.6048h20.0752c0-3.54136-.69673-7.02674.18062-10.05622,1.04059-3.5932,2.79417-7.488,5.44865-9.94492,2.12221-1.96426,3.00034-3.49328,2.91364-6.13675-.1232-3.75677-.03126-7.52066-.03126-11.95337a27.81153,27.81153,0,0,1,3.32321,1.579c7.13028,4.91068,14.309,4.99488,21.36635.01755,3.50678-2.4732,6.60682-2.3345,10.05887.09094,6.90046,4.8483,13.975,4.80039,20.9257.04059,2.99262-2.04931,5.917-3.02344,9.17679-.65542,7.68616,5.58337,15.38257,5.553,23.09779.02963a14.84805,14.84805,0,0,1,2.5267-1.00058c0,4.62085-.14554,8.70837.07822,12.77557.07928,1.44056.6615,3.56305,1.6932,4.123,5.47977,2.97421,6.97648,7.68707,6.76816,13.41724-.08938,2.45877-.015,4.92352-.015,7.29877a9.60592,9.60592,0,0,0,1.86685.5823c9.7894.41428,9.78959.409,13.36161-8.818,4.23157-10.9307,4.22263-10.54663,15.68528-10.27893,11.63351.27173,23.29728-.11048,34.926-.66394,3.4411-.16376,5.29938.60675,6.36249,3.79037.62961,1.8855,1.77735,3.606,2.337,5.50534,2.15228,7.30475,5.53345,11.65735,14.57285,10.96219,7.5935-.584,14.15079,8.19211,14.00317,16.09754-.15869,8.4968-7.01449,15.60276-15.894,16.39933-1.65424.1484-3.3306.06326-4.99677.06338q-56.49108.00388-112.98218.002Zm-16.52591-21.99992q-68.21875,0-136.4375.00089c-6.52746.00024-9.525,1.77292-9.36523,5.52005.15776,3.70016,3.27856,5.47757,9.66479,5.47772q136.18763.0027,272.37525-.00775c1.6601-.00018,3.78962.48355,4.87668-.34231,1.9076-1.44925,4.42643-3.79249,4.34653-5.66108-.07358-1.72085-3.05176-3.60077-5.09622-4.84015-1.1008-.66726-2.92743-.14608-4.42658-.14615Q243.82673,266.79484,175.85786,266.79594Zm42.52534-21.70111H133.536v10.39148H218.3832Z"/><path d="M181.37721,183.96924c2.84738,0,4.9805.03311,7.11185-.01341,1.13443-.02477,2.26581-.18741,3.95352-.337,0-2.96045-.10617-5.7558.02747-8.53966.159-3.31239,1.93091-5.30044,5.34759-5.33436,3.40006-.03377,5.27634,1.86575,5.46543,5.2.1582,2.78986.03247,5.59581.03247,8.419,2.54712.63825,4.65711,1.0235,6.67078,1.69684a16.80962,16.80962,0,0,1,11.09619,19.007c-.11941.61593-.25061,1.52684-.66549,1.7413-3.37345,1.74379-6.88389,3.22865-10.22,5.037-4.144,2.24631-6.84863-.62192-9.99262-2.36851-6.41421-3.56333-12.855-3.3107-18.82862.89112-3.79837,2.67176-7.03885,2.803-10.90561.09815-6.711-4.69432-13.75864-4.67092-20.46994.05106-3.64118,2.56185-6.7819,2.66873-10.48792.11846-2.5484-1.75363-5.61856-2.74905-8.50342-4.10591-1.54073-13.11264,2.56575-18.5293,17.43595-22.2594,0-2.63493-.11057-5.43062.02861-8.21381.1658-3.31564,1.96038-5.29051,5.37141-5.31077,3.39951-.02021,5.26136,1.89509,5.44223,5.22789.15192,2.79918.03122,5.61316.03122,8.70448h11.07581c0-4.81166.07016-9.56143-.02145-14.30808-.07825-4.05351,1.3587-7.27032,5.70313-7.16629,4.01385.09613,5.40371,3.21779,5.32425,7.06032C181.30384,173.91533,181.37721,178.56961,181.37721,183.96924Z"/><path d="M273.61817,178.0165c2.9639-1.36744,6.71451-3.52169,10.74021-4.82906,3.61319-1.17346,7.38-.3381,8.34973,3.95242.9798,4.335-1.78784,6.11692-5.893,6.80454-6.17658,1.03459-7.90839,4.68463-5.38038,10.32024,4.48386,9.99585,8.92777,20.00963,13.85084,31.05318H253.4278c4.15155-10.6232,7.95255-20.3003,11.71436-29.99262,2.45416-6.32314.6886-9.33744-6.19779-10.7058-.65131-.12944-1.59088-.01727-1.90863-.411-1.51144-1.873-4.13031-4.05007-3.90085-5.79647.23377-1.77939,3.51138-4.672,5.13657-4.47255C263.19773,174.544,267.96928,176.40967,273.61817,178.0165Z"/></svg>