<svg xmlns="http://www.w3.org/2000/svg" viewBox="0 0 383.12937 383.21494"><path d="M9.60689,383.21494c-3.4443-2.10094-4.10734-5.01962-3.40571-8.93388q9.59872-53.55068,54.33292-84.3762c.60736-.42,1.17635-.89547,2.01861-1.54068-17.55959-14.62887-29.48764-32.75973-35.30147-54.99435-2.0926-.11909-4.1869-.09816-6.24046-.37718A24.04663,24.04663,0,0,1,3.23922,197.0392a5.36082,5.36082,0,0,0,.446-4.00913,21.9934,21.9934,0,0,1,1.325-19.12864,14.81371,14.81371,0,0,0,1.52046-11.15136c-2.02975-8.018-.00083-15.10251,5.58814-21.078a14.967,14.967,0,0,0,4.28824-10.39019A21.65708,21.65708,0,0,1,27.4,112.43514a14.36227,14.36227,0,0,0,6.66714-8.60973A21.87447,21.87447,0,0,1,49.73823,88.18159a13.76613,13.76613,0,0,0,8.3978-6.37366c4.44255-7.505,11.20819-11.17715,19.80758-11.35752,4.17288-.08752,6.9125-1.61855,8.867-5.47383,3.88562-7.66443,8.0142-15.22279,12.45565-22.57522a7.80071,7.80071,0,0,1,5.632-3.21075c1.54025-.03456,3.73343,1.99,4.51492,3.63376.63913,1.34426-.00078,3.65218-.735,5.22376-1.78161,3.8134-3.9486,7.44668-5.981,11.19057,6.85666,2.28192,13.11305,2.55107,19.5382-1.09844a16.58758,16.58758,0,0,1,16.23907-.21143,22.30644,22.30644,0,0,0,19.847,1.26407c-.35153-.73882-.77529-1.75269-1.29914-2.71187C149.43719,42.59262,141.872,28.69308,134.193,14.85674c-.78536-1.41507-2.46741-3.55273-3.38811-3.39083-1.43967.25314-2.88759,1.99519-3.793,3.44358-2.10992,3.37547-3.88962,6.9568-5.81969,10.44555-2.4595,4.44576-5.36807,5.75126-8.63,3.89683-3.121-1.77429-3.56926-4.87653-1.28421-9.117,2.06881-3.83914,4.23952-7.62522,6.23187-11.50326,2.7472-5.34733,6.98259-8.51636,13.03423-8.51149,6.01975.00484,10.214,3.10225,13.09244,8.42109,10.25948,18.958,20.72712,37.80354,30.94042,56.78613a8.71,8.71,0,0,0,8.31821,5.09571c8.91936.146,15.55155,4.11978,20.542,11.60607a16.1369,16.1369,0,0,0,7.73152,5.88348c8.24673,2.79975,13.29507,8.13477,16.28586,16.20646a17.90554,17.90554,0,0,0,6.13977,7.96417c6.94446,4.87713,11.02985,11.03007,11.16784,19.599a13.78775,13.78775,0,0,0,4.06445,9.73126c5.92652,6.1539,7.40412,13.41149,5.92969,21.775A18.29942,18.29942,0,0,0,256.06,173.20206c2.98251,6.73377,3.99463,13.25648,1.242,20.25959a5.44686,5.44686,0,0,0,.41978,4.03465,24.22433,24.22433,0,0,1-20.78721,35.83283c-1.12286.03348-3.01772.66265-3.2126,1.37935a108.35566,108.35566,0,0,1-15.57026,33.06765h42.165c0-6.51809,0-13.08549,0-19.65289,0-11.27231.30648-11.58286,11.44739-11.59389,1.34849-.00133,2.697-.00016,3.93871-.00016,1.01275-2.81671.23287-4.25692-2.14831-5.63995-6.21072-3.60728-9.41291-10.726-6.94129-17.30707a172.15976,172.15976,0,0,1,10.36462-21.87655c2.31253-4.22857,7.34749-4.19008,9.663.05109a172.43526,172.43526,0,0,1,10.22721,21.533c2.56539,6.79616-.55778,13.93828-6.89459,17.63243-2.20038,1.28279-3.15181,2.58806-2.239,5.6072,2.42963,0,5.106-.00866,7.78225.00176,6.01552.02344,7.70173,1.71967,7.71724,7.83554.01955,7.713.00472,15.42611.00472,23.74428,4.73916,0,9.173-.08611,13.60194.02427,4.432.1104,6.72982,2.26332,6.54547,5.93055-.14387,2.86247-1.62373,4.67931-4.48842,5.12115a27.11017,27.11017,0,0,1-4.10673.14212q-55.00642.00952-110.01283.00717c-9.76036.00133-13.08482,3.30721-13.0943,12.98016-.003,3.1189-.04007,6.23848.01149,9.35655.104,6.28678,2.56246,11.21229,8.67283,13.54246,5.94279,2.26625,10.87095.51948,15.04122-4.24131,3.338-3.81058,6.30217-3.64527,9.77934.085,6.4392,6.908,14.40341,6.96343,20.75384.14454,3.67628-3.94744,6.42083-3.9766,10.04115-.10661,6.44162,6.88583,14.40374,6.91325,20.756.07147,3.64432-3.92517,6.39109-3.93458,10.03987-.03444,6.42869,6.87154,14.41457,6.87316,20.75733.00416,3.58664-3.88413,6.41677-3.87725,10.04428.02452,6.37286,6.85462,14.40585,6.83516,20.75484-.05027,3.56425-3.86546,6.39495-3.84633,10.05748.06777,4.42624,4.73024,9.5708,6.21206,14.77167,4.2548,5.293-1.99191,8.58891-6.94509,8.68314-13.19172q.09028-5.98694.003-11.97628c-.08829-6.81773-3.79-10.70215-10.61476-10.89323-5.60856-.157-11.22489-.03624-16.83776-.04042-1.12252-.00084-2.24771.03793-3.36705-.02431-3.48638-.19375-5.58887-2.07053-5.79469-5.11882a5.26249,5.26249,0,0,1,5.36667-5.92251c8.46706-.10275,17.00576-.40535,25.38994.51621,8.09073.88932,13.27787,6.32932,16.04675,13.958.3783,1.0422.72671,2.09527,1.089,3.14329v19.46595c-1.40388,6.13962-3.3357,12.04869-8.6123,16.04489a5.89882,5.89882,0,0,0-2.456,5.37431c.09,16.18691-.03239,32.37524.10572,48.56146.03258,3.82041-1.08934,6.50855-4.75683,7.88314h-2.24563c-3.37607-1.75573-4.442-4.58852-4.32856-8.28979.18147-5.92187.04862-11.85336.04862-17.73047H202.67694c0,6.16952-.15959,12.02586.05716,17.86824.14007,3.77556-1.04638,6.50793-4.49462,8.152h-2.24562c-3.587-1.49642-4.64575-4.2109-4.6081-8.01566.15557-15.72016-.00071-31.44328.1218-47.164.0239-3.06639-1.10858-5.01125-3.03259-7.41818-3.09707-3.87439-5.21181-8.6039-7.31885-13.1674-.88523-1.91724-.69234-4.33243-1.028-6.804a98.76983,98.76983,0,0,1-9.108,3.85489,13.68177,13.68177,0,0,0-7.377,5.81882c-9.01447,13.02061-18.1833,25.93453-27.32366,38.86767-3.82839,5.41693-7.58454,5.43123-11.42176.05472-9.05525-12.68775-18.1502-25.34813-27.07893-38.12455a18.10372,18.10372,0,0,0-8.99449-7.31863c-4.5341-1.63573-8.72-4.23439-13.06466-6.39953-1.56636-.78059-2.781-2.239-5.023-.85763-2.17017,1.33714-2.17028,3.02665-2.16877,5.05012.01841,24.58075-.02082,49.16161.04736,73.74218.00989,3.56859-.906,6.36186-4.36478,7.88124H61.25629c-3.102-1.66879-3.97032-4.30015-3.95363-7.734.10421-21.43565.05229-42.872.05209-64.30821,0-1.31105,0-2.62213,0-3.9706-.69485.05641-1-.01342-1.14633.10809-1.14949.95446-2.30176,1.91009-3.39212,2.9306-19.19936,17.969-30.97293,39.92607-35.64983,65.80673-.45832,2.53626-2.50659,4.78512-3.81686,7.16737ZM130.85032,146.208c-20.57321,0-41.14684-.08169-61.71952.02352-19.65069.1005-33.3546,13.23715-33.65485,32.41826-.18732,11.96691-.14152,23.95276.33945,35.90839a76.64524,76.64524,0,0,0,2.70222,17.66834c8.68537,30.65785,28.88174,51.07977,58.15139,62.288,27.6505,10.58821,54.95193,8.89936,81.09926-5.582a6.44573,6.44573,0,0,0,3.02728-3.33662c2.83187-10.55958,9.35974-16.25386,20.199-17.51515a6.68658,6.68658,0,0,0,4.04569-1.91879,83.40646,83.40646,0,0,0,16.5047-30.291c6.05628-20.377,4.39056-41.22949,3.8321-62.01166a16.42091,16.42091,0,0,0-.67309-3.66228c-3.88914-14.80644-16.07428-23.88352-32.50821-23.96447C171.74775,146.1317,151.29884,146.20827,130.85032,146.208ZM248.4851,187.78944c-.55417-2.89605-.45213-5.61159-1.57763-7.64862a27.03032,27.03032,0,0,1-2.78072-20.924,8.90336,8.90336,0,0,0-2.47761-9.23642,26.5709,26.5709,0,0,1-8.00324-19.14753,9.35476,9.35476,0,0,0-5.013-8.55727A25.947,25.947,0,0,1,216.23673,106.093a9.316,9.316,0,0,0-7.01295-7.0233A25.93257,25.93257,0,0,1,193.04033,86.676a9.57906,9.57906,0,0,0-8.91134-5.10851A25.211,25.211,0,0,1,165.64721,73.896a9.67529,9.67529,0,0,0-9.92865-2.64468,25.9769,25.9769,0,0,1-19.86545-2.56468,9.96027,9.96027,0,0,0-10.60737.03924,25.64927,25.64927,0,0,1-19.51066,2.58976c-3.96754-.99315-7.30417-.31279-10.27232,2.64553a25.20354,25.20354,0,0,1-18.508,7.60856,9.30745,9.30745,0,0,0-8.66929,4.86876A26.13769,26.13769,0,0,1,51.86774,99.09642a9.325,9.325,0,0,0-6.97446,7.07675,25.91374,25.91374,0,0,1-12.42013,16.15369,9.308,9.308,0,0,0-4.96508,8.58506,25.50392,25.50392,0,0,1-7.54674,18.5535,9.96909,9.96909,0,0,0-2.83225,10.22292,26.80391,26.80391,0,0,1-2.7488,20.21307c-1.13727,2.056-1.10568,4.75885-1.70138,7.60776l11.51723-2.43c0-1.75281-.00368-3.601.00055-5.44928.05759-25.12253,18.153-44.28729,43.20888-44.52188q62.86085-.58856,125.73078-.02375c23.93676.19674,40.86688,15.84178,43.64315,39.29876.43094,3.641.06024,7.377.06024,10.61876ZM360.69445,329.02678c-5.78939-2.20521-11.00648-4.28769-16.30992-6.12012a4.65257,4.65257,0,0,0-3.248.75733c-8.76551,5.06106-17.55366,5.19906-26.20045-.04951-1.95793-1.18843-3.07714-1.01659-4.88931.128-6.637,4.19192-14.15705,5.35165-21.08207,2.0557-5.30735-2.526-9.10456-2.31174-14.38419.014-8.13743,3.58459-16.36075,1.66765-23.51107-3.58543-10.39909,6.9857-20.62793,6.96361-29.87352.6965l-18.20868,5.69449v16.72505H360.69445Zm-248.90861-17.534c6.08141,8.53845,12.31873,17.2958,18.79269,26.38542,6.438-9.15542,12.5741-17.88166,18.5538-26.38542ZM271.698,267.85914h20.03691V247.994H271.698Zm-247.28038-71.074c-5.47138.0847-9.129,2.33134-11.56657,6.44551a11.55873,11.55873,0,0,0,.42028,13.06477,11.62663,11.62663,0,0,0,11.14629,5.54282ZM236.86346,221.6919c7.59062.04556,12.77764-5.17225,12.53538-12.77328-.22389-7.02466-5.37822-12.04925-12.53538-11.72828Zm45.37344-15.15155-1.02079.10156c-1.28176,3.21139-2.88749,6.34427-3.6931,9.671-.34425,1.42162.52529,4.02051,1.6633,4.69a6.02123,6.02123,0,0,0,5.337-.1235c1.12359-.72872,1.90163-3.322,1.5319-4.75414C285.20235,212.82185,283.55937,209.72249,282.2369,206.54035Z"/><path d="M383.12937,167.59212c-1.5888,3.13444-4.17687,4.31572-7.61693,4.09274-2.47242-.16023-4.96951.03413-7.43772-.15875-3.18158-.2486-5.02152-2.1329-5.10566-5.31386-.08388-3.17074,1.60971-5.31269,4.79825-5.56214a40.14175,40.14175,0,0,1,10.36777.12195c1.83864.34317,3.34055,2.49113,4.99429,3.8253Z"/><path d="M270.27371,9.93936a47.60684,47.60684,0,0,1-.03436,5.21011,5.07439,5.07439,0,0,1-5.18186,4.87718c-2.96406.14264-5.24868-1.41358-5.55251-4.389a60.46544,60.46544,0,0,1-.03093-11.1319c.25391-3.03095,2.50274-4.57242,5.44975-4.5035,2.93384.06861,4.94109,1.66791,5.28432,4.7288a46.99767,46.99767,0,0,1,.03466,5.208Z"/><path d="M246.06469,34.08529c-1.60522-.103-3.35966-.0761-5.06392-.35549a4.996,4.996,0,0,1-4.51718-5.469c.04615-2.96925,1.63968-5.06114,4.69009-5.28473a81.62849,81.62849,0,0,1,10.41587-.04072c3.06241.16811,4.76351,2.21231,4.8862,5.13791a5.06351,5.06351,0,0,1-4.70482,5.69294C249.93658,34.02722,248.059,33.98439,246.06469,34.08529Z"/><path d="M283.20438,22.69256a51.56785,51.56785,0,0,1,5.57212.31826,4.94858,4.94858,0,0,1,4.37989,5.21583c.06227,2.75094-1.29556,5.09908-4.14067,5.36192a60.67568,60.67568,0,0,1-11.8561-.03481c-2.82042-.29639-4.126-2.66048-4.00861-5.44628a4.93233,4.93233,0,0,1,4.47786-5.12C279.46121,22.71951,281.34182,22.78172,283.20438,22.69256Z"/><path d="M270.28383,46.926a46.58094,46.58094,0,0,1-.02968,4.83874,5.10077,5.10077,0,0,1-5.13339,4.93987c-2.95476.17816-5.29747-1.35618-5.595-4.32764a59.54075,59.54075,0,0,1,.026-11.49356c.26982-2.84371,2.53482-4.25457,5.30907-4.20538,2.94218.05216,4.97465,1.61262,5.33286,4.66822a48.20849,48.20849,0,0,1,.03955,5.57941Z"/><path d="M360.01551,147.67382a42.2849,42.2849,0,0,1-.04592,5.57788c-.38457,2.86687-2.37706,4.363-5.13092,4.47832-2.75794.1155-5.14152-1.20687-5.43065-4.04295a61.2749,61.2749,0,0,1-.02629-11.85122c.26587-2.84465,2.58835-4.19741,5.36852-4.1137,2.96138.08918,4.92352,1.69278,5.26675,4.74164a46.82958,46.82958,0,0,1,.03476,5.20936Z"/><path d="M336.24916,171.7337c-1.75508-.08712-3.63555-.03233-5.46706-.30558a4.93643,4.93643,0,0,1-4.49043-5.11141c-.11281-2.96231,1.316-5.26506,4.34916-5.55372a64.04486,64.04486,0,0,1,11.13459-.03812c3.0483.24439,4.5718,2.5213,4.51112,5.44445a5.01015,5.01015,0,0,1-4.724,5.3009C339.84357,171.68185,338.09466,171.65057,336.24916,171.7337Z"/><path d="M360.10138,184.44475c0,1.61441.10663,3.23741-.02248,4.84142-.25987,3.22844-2.21268,5.02705-5.32907,5.11605-3.13849.08958-5.30825-1.6663-5.56538-4.844a59.39582,59.39582,0,0,1,.01-10.40554c.29952-3.12637,2.47358-4.90264,5.64351-4.76056,3.14811.14107,4.99169,2.03178,5.26017,5.21009.13544,1.60335.02364,3.22758.02364,4.84238Z"/><path d="M235.93,308.89538a5.62558,5.62558,0,0,1-5.49236-5.82664,5.52913,5.52913,0,0,1,5.61048-5.27988,5.62379,5.62379,0,0,1,5.52847,5.76726A5.77808,5.77808,0,0,1,235.93,308.89538Z"/><path d="M359.83313,60.83931a5.82164,5.82164,0,0,1-5.49693,5.50543,5.64564,5.64564,0,0,1-5.6354-5.69251,5.47994,5.47994,0,0,1,5.45105-5.42612A5.61375,5.61375,0,0,1,359.83313,60.83931Z"/><path d="M358.187,297.78943a5.56556,5.56556,0,0,1,5.47935,5.78339,5.65985,5.65985,0,0,1-5.61436,5.33026,5.77829,5.77829,0,0,1-5.51453-5.47916A5.56862,5.56862,0,0,1,358.187,297.78943Z"/><path d="M210.98186,303.41956a5.63967,5.63967,0,0,1-5.83227,5.48878A5.8751,5.8751,0,0,1,199.843,303.191a5.63425,5.63425,0,0,1,5.89769-5.38624A5.454,5.454,0,0,1,210.98186,303.41956Z"/><path d="M272.10572,303.20807a5.79553,5.79553,0,0,1-5.67642,5.712,5.64968,5.64968,0,0,1-5.40791-5.52746,5.41559,5.41559,0,0,1,5.593-5.59546A5.531,5.531,0,0,1,272.10572,303.20807Z"/><path d="M333.08929,303.12637a5.55628,5.55628,0,0,1-5.51347,5.76568,5.72335,5.72335,0,0,1-5.57886-5.39929,5.56714,5.56714,0,0,1,5.57359-5.70607A5.4965,5.4965,0,0,1,333.08929,303.12637Z"/><path d="M299.88278,108.45819a5.59271,5.59271,0,0,1-5.79962,5.46574,5.48317,5.48317,0,0,1,.03221-10.96182A5.57,5.57,0,0,1,299.88278,108.45819Z"/><path d="M302.54819,303.46246a5.62755,5.62755,0,0,1-5.84068,5.44528,5.75883,5.75883,0,0,1-5.16943-5.76837,5.50743,5.50743,0,0,1,11.01011.32309Z"/><path d="M130.24129,269.405c-13.80741-.03407-24.77229-10.191-25.60006-23.71369-.28351-4.63165,1.60084-7.4195,5.14716-7.615,3.34828-.18461,5.54833,2.25749,6.00694,6.66786,1.093,10.51146,11.5167,16.61664,20.81553,12.14127,5.165-2.48586,7.81386-6.75642,8.41268-12.385.47155-4.4323,2.688-6.737,6.13031-6.38388,3.6192.37119,5.49631,3.32215,4.95721,7.79318C154.40091,260.09267,144.10982,269.43919,130.24129,269.405Z"/><path d="M130.3373,215.43772a48.50856,48.50856,0,0,1,5.58.04012,4.94871,4.94871,0,0,1,4.60843,5.01c.19171,2.76726-1.052,5.24385-3.86562,5.54111a58.76144,58.76144,0,0,1-12.55933.00886c-3.02285-.335-4.13135-2.93508-3.82992-5.88353a4.85543,4.85543,0,0,1,4.85438-4.72433c1.72621-.14273,3.47386-.02629,5.21188-.02629Z"/><path d="M80.41022,214.57639a5.84291,5.84291,0,0,1-5.54851-5.84869,5.577,5.577,0,0,1,5.63532-5.267,5.44049,5.44049,0,0,1,5.48583,5.36634A5.645,5.645,0,0,1,80.41022,214.57639Z"/><path d="M180.41562,214.56152a5.60787,5.60787,0,0,1-5.66679-5.23286,5.49025,5.49025,0,1,1,10.96747-.34883A5.6034,5.6034,0,0,1,180.41562,214.56152Z"/></svg>