<svg xmlns="http://www.w3.org/2000/svg" viewBox="0 0 352.12463 352.18486"><path d="M32.51854,257.84806c-5.8276-4.93885-7.58134-12.43191-7.98138-20.73858-1.315-27.30619-2.93945-54.59748-4.44542-81.89446-.53258-9.6535-1.1353-19.30393-1.554-28.96238-.11311-2.60926-.8233-4.07985-3.52348-5.09694C5.00608,117.386.15775,109.8356.0592,99.21347c-.06342-6.8359-.09874-13.67436.01467-20.509a18.76122,18.76122,0,0,1,12.6329-18.03Q89.3883,31.31138,166.08228,1.98083a25.96217,25.96217,0,0,1,19.04122-.32732q27.07774,10.25288,54.077,20.71184c1.59952.62066,3.58587,1.78356,4.12647,3.18372.60113,1.55694.41854,4.52862-.62546,5.34434a7.57627,7.57627,0,0,1-6.17265,1.20548C224.14667,27.6928,211.93891,22.8,199.607,18.24808c-29.20707-10.781-18.01529-10.82182-47.06111.07429-37.544,14.0841-74.95548,28.52188-112.41776,42.82374a11.377,11.377,0,0,0-4.39973,2.80231q7.79086,0,15.58172,0c10.16858.00026,20.33722.02417,30.50568-.01166,3.59466-.01266,7.11053.42516,7.18038,4.93357.07509,4.84664-3.595,5.22443-7.38128,5.2184-21.83737-.03479-43.676.10235-65.51134-.11025-4.66876-.04547-6.19722,1.46694-5.97522,6.04373.31473,6.48788-.04941,13.00577.12469,19.50419.19548,7.29639,5.01182,12.355,11.6205,12.565C28.43651,112.3,33.14913,108.08476,34.101,100.854c.4245-3.22463,1.7012-5.51732,5.12357-5.653,3.52022-.13958,4.7956,2.295,5.42345,5.37874,1.60965,7.9059,5.51086,11.59684,11.986,11.51958,6.29372-.07512,10.2017-3.82391,11.64879-11.36654.58609-3.05487,1.696-5.57095,5.25708-5.558,3.5376.01283,4.67346,2.45387,5.2275,5.56146,1.3217,7.41331,5.38,11.26956,11.67922,11.362,6.49051.09524,10.71149-3.84384,12.01789-11.48591.54462-3.1858,1.89008-5.48624,5.3527-5.40982,3.42921.07567,4.75456,2.43477,5.23207,5.59394,1.0669,7.059,5.02548,10.99415,11.13846,11.28571,6.342.30248,11.09659-3.54861,12.45475-10.54346.64741-3.33438,1.18133-6.52191,5.44333-6.335,4.167.18272,4.57842,3.36253,5.10949,6.72a11.72671,11.72671,0,0,0,11.78742,10.17428c6.18593.00641,10.91906-4.08539,11.78043-10.668.43686-3.33847,1.35058-6.08877,5.08446-6.20539,4.034-.126,5.074,2.7062,5.54787,6.259.87483,6.559,5.64132,10.64317,11.82841,10.61459,6.09686-.02817,10.916-4.194,11.80385-10.72288.45266-3.32853,1.25632-6.04727,5.07405-6.1726,3.88479-.12752,4.72046,2.61573,5.31985,5.90141,1.30912,7.17576,5.81879,11.07806,12.1,10.99294,6.33156-.08581,10.537-4.121,11.58594-11.35447.46466-3.20434,1.85473-5.48305,5.26369-5.541,3.47956-.05908,4.767,2.31615,5.32,5.46454,1.33992,7.6272,5.57207,11.55016,12.07022,11.4306,6.28837-.11572,10.33432-3.98395,11.63212-11.41434.54817-3.13849,1.72687-5.51839,5.25844-5.50589,3.58.01266,4.62783,2.59667,5.22117,5.61387,1.48,7.52544,5.394,11.25711,11.70227,11.31053,6.4509.05463,10.35541-3.66556,11.93259-11.57921.6221-3.12119,1.95815-5.48484,5.45971-5.31879,3.42725.16253,4.65524,2.51537,5.08928,5.70827.98139,7.21961,5.71343,11.41834,12.282,11.17971,6.59864-.23969,11.38769-5.30822,11.57138-12.62015.1716-6.83223-.08-13.67514.09319-20.5073.09334-3.68168-1.31627-5.03487-5.00125-4.94634-7.8303.18812-15.66822.05562-23.503.05559q-100.51885-.00025-201.03775-.00145c-1.50011,0-3.312.51008-4.43076-.1486-1.90794-1.12334-4.89215-3.23032-4.69008-4.48271.32162-1.99331,2.64756-3.99144,4.59606-5.2711,1.17694-.77293,3.2422-.2166,4.90831-.21671q98.76854-.0062,197.5371-.00363h5.98313l.26732-.78317c-3.40569-1.39156-6.78593-2.84976-10.22153-4.163q-21.44707-8.19821-42.921-16.32619-1.16789-.444-2.32656-.912c-3.20219-1.29048-5.86369-3.154-4.36426-7.08064,1.58833-4.15953,4.97864-3.75918,8.37359-2.48122,5.91744,2.22753,11.81651,4.50408,17.72067,6.76682q27.72983,10.62726,55.45707,21.26116c9.4072,3.60952,13.6967,9.77233,13.7575,19.79913.03236,5.33563.007,10.67158.00626,16.00738-.0021,15.08319-4.38492,21.37909-18.81455,26.67359-.66315,10.64881-1.40835,21.43788-1.99321,32.23563q-2.29915,42.44543-4.4674,84.89789a26.39021,26.39021,0,0,1-8.93808,18.932c10.99674,9.09269,8.94254,22.34881,10.95636,34.21459,2.47863,14.60432,3.98622,29.37149,6.05248,44.04866,1.17024,8.31239-4.08732,14.93342-12.52619,15.02319-12.83431.1365-25.67166.11-38.50668.01178-8.64221-.0661-13.69429-5.49764-12.6828-14.21473,1.90061-16.37926,4.21561-32.71034,6.35436-49.062.36717-2.80723.82868-5.608,1.05028-8.42719.64289-8.17825,2.5366-15.81033,9.51425-21.62807-7.76528-6.51112-9.17046-15.00248-9.2979-24.111-.10957-7.82882-.71669-15.65238-1.17814-23.47387-.20973-3.555.608-6.63319,4.61461-6.96926,4.05752-.34034,5.40889,2.635,5.607,6.15814.55223,9.81951.94186,19.649,1.58432,29.46227.46466,7.09758,4.56754,12.05792,10.67762,13.413a12.83521,12.83521,0,0,0,14.14149-6.08716,15.66779,15.66779,0,0,0,1.88913-6.58971q2.56539-42.93111,4.89823-85.8761c.53163-9.48667.90939-18.98415,1.61125-28.4579.23384-3.15676-.02891-5.27071-3.47917-6.5822-2.38559-.90683-4.31856-3.0052-6.58719-4.66894-8.534,8.41013-18.23295,9.57153-29.19755,4.1953,0,4.21716-.17252,8.09871.02967,11.9606.90639,17.31262,1.91294,34.62,2.89915,51.9284.20973,3.68095-.40141,7.01623-4.9159,7.09209-4.43639.07453-5.16285-3.1957-5.34892-6.8769q-1.46443-28.96874-3.1025-57.92863c-.0887-1.61575-.36125-3.22143-.60324-5.30369-10.606,4.24793-19.89,2.92386-27.68114-5.08175-12.57683,10.90888-24.52892,9.07093-34.23553.26955-10.71333,9.32192-22.95946,10.19173-32.947.99731-6.49464,2.20831-12.162,4.92689-18.12032,5.94965-6.6129,1.13514-12.27658-2.20434-17.15053-7.27-11.37977,9.88322-22.88877,10.4953-34.55773-.01605-8.116,8.03408-17.48643,9.65613-28.56366,4.7187-.2904,2.91936-.64011,5.45412-.78119,8.00044q-3.15339,56.92211-6.21877,113.849c-.36572,6.94538-3.59813,12.33066-8.57011,17.44825,7.88234,6.33535,8.64547,15.39625,9.67768,24.37872.57041,4.96376,1.32428,9.90621,1.92161,14.86717.4167,3.46073-.84362,6.15646-4.51583,6.49842-3.62641.33771-5.291-1.97716-5.70607-5.49038-.86-7.27854-1.89649-14.53605-2.82-21.80735-1.04239-8.20742-6.19446-13.30741-13.53738-13.33767-7.37666-.03041-12.47817,4.92129-13.57826,13.223q-3.77437,28.4831-7.50492,56.97195c-.29566,2.27191-.31389,4.57988-.48722,7.285H70.31824c-.65818-5.39356-1.11234-10.33094-1.90424-15.21352-.61449-3.78868.01646-7.06274,4.1003-7.77212,4.3091-.74855,5.64864,2.49907,6.10006,6.16806.56954,4.62861,1.37234,9.23631,1.74583,13.87949.62057,7.71527-4.30255,13.39208-11.9705,13.49836-13.33406.18484-26.675.20417-40.00822-.01151a11.75512,11.75512,0,0,1-11.82095-13.664c2.783-21.97665,5.48369-43.97287,8.92455-65.85005C26.261,267.58162,29.91156,263.10078,32.51854,257.84806Zm7.001-142.81385c-2.51852,1.76843-4.63821,3.80108-7.16452,4.889-2.96824,1.27825-3.70658,2.95371-3.50469,6.07285.90329,13.95571,1.51363,27.93025,2.26042,41.89632q1.93362,36.162,3.92384,72.321c.36743,6.54012,4.19123,11.31654,9.96477,12.87905,8.95426,2.42332,16.5567-4.00574,17.11078-14.29653,1.52172-28.26349,3.14886-56.52129,4.66689-84.785.605-11.2639,1.03289-22.5373,1.54666-33.923C51.805,123.567,48.98437,123.06958,39.51956,115.03421ZM302.9437,341.89482c5.4925,0,10.99485-.20206,16.47428.06556,4.1885.20459,5.58627-1.01858,4.95074-5.43148-2.86815-19.91517-5.42953-39.87433-8.14566-59.81164-1.09711-8.05326-6.07846-12.7397-13.3411-12.7121-7.15142.02718-12.39851,5.00731-13.44083,12.80791-2.70887,20.27331-5.36005,40.55452-8.144,60.81751-.42937,3.12513.63413,4.30958,3.67134,4.27664C290.95959,341.84228,296.95191,341.88805,302.9437,341.89482Z"/><path d="M191.526,271.07963c0,6.49421-.00079,12.62273.00021,18.75123.00138,8.5022.07048,17.0051-.02133,25.50627-.04722,4.37452,1.75867,6.84969,6.21938,7.49379a60.25289,60.25289,0,0,1,8.74875,1.9959c7.48809,2.25934,11.87142,9.70147,10.54682,17.63654-1.02928,6.16577-6.16636,9.68437-14.23245,9.69017q-26.74955.01923-53.49907-.0004c-8.02961-.00629-13.18449-3.58234-14.16486-9.76329-1.26645-7.98459,3.12131-15.37174,10.625-17.58326a96.79725,96.79725,0,0,1,9.72413-2.219c3.31571-.61482,5.06107-2.59073,5.07691-5.81756.07357-14.98022.03254-29.961.03254-45.37457-1.907-.11834-3.49378-.29869-5.081-.3022-11.33308-.02507-22.66658.04057-33.99927-.03136-9.71117-.06161-15.07252-5.4923-15.22255-15.22979q-.03083-2-.00181-4.001c.12729-9.86936,5.28694-15.19035,15.082-15.26268,12.99908-.09593,25.99936-.02873,38.99913-.02894q34.74939-.00064,69.49877.0145c11.45567.0211,16.063,5.21208,16.02919,17.84019-.03064,11.45928-5.091,16.65948-16.29886,16.68018C217.109,271.09737,204.63023,271.07963,191.526,271.07963Zm-15.3302-24.0422q-26.47983,0-52.95961.00421c-6.34734.00434-6.62608.31677-6.60865,6.8812.01666,6.27417.48071,6.76765,6.87325,6.76991q52.70979.01864,105.41958-.00219c6.13868-.00284,6.62935-.57324,6.61277-7.03209-.01608-6.25157-.33386-6.61032-6.37776-6.61554Q202.67557,247.02,176.19579,247.03743ZM170.92,271.24365c0,14.79487.015,29.08312-.00485,43.37127-.01541,11.08158-4.5046,16.43541-15.38615,18.58511-2.59121.51187-5.38221.84576-7.6,2.1078-1.36735.77814-1.82377,3.15786-2.68919,4.81849,1.37718.62292,2.75071,1.77852,4.1321,1.788q26.70722.1831,53.41585-.00015c1.38076-.00949,2.75362-1.16742,4.13017-1.79158-.86739-1.66021-1.32759-4.08622-2.69184-4.8119-2.40764-1.28078-5.3455-1.628-8.098-2.18487-10.24058-2.07189-14.85415-7.57891-14.87948-18.015-.03111-12.81685-.00849-25.63383-.009-38.45077-.00009-1.755,0-3.51,0-5.41634Z"/></svg>