<svg xmlns="http://www.w3.org/2000/svg" viewBox="0 0 113.96175 129.49683"><path d="M113.96175,41.04456v88.45227H0V41.04456Q28.49039,20.52228,56.98084,0,85.47132,20.52228,113.96175,41.04456ZM8.22885,48.74179c-.00114.21665-.00344,49.80684-.00344,49.80684-.0342,1.23949-.03756,2.52621-.00264,3.85683q.02178.83052.06161,1.63569,33.0661-25.55852,66.1322-51.11707c.05643-.04232.14807-.07051.11988-.19036a60.10329,60.10329,0,0,0-21.02277-6.18939c-.55481-.05532-13.155-1.21062-18.36307,3.24843a11.27534,11.27534,0,0,0-2.80891,3.707,9.90022,9.90022,0,0,0-.64969,5.23567c.11009.773.68587,4.01227,3.14239,5.27926a9.11467,9.11467,0,0,0,4.01181.70507,11.98872,11.98872,0,0,0,2.35491-.23268,13.27667,13.27667,0,0,0,3.5253-1.24091c.40187-.20445.34548-.24677.80376,0,.11282.06346.25381.09871.31729.23973a.7754.7754,0,0,1-.22565.29611,32.9717,32.9717,0,0,1-4.82968,4.13871,20.3181,20.3181,0,0,1-3.83552,2.11519,12.45189,12.45189,0,0,1-3.52532.88837,9.71624,9.71624,0,0,1-2.26324-.03525,8.461,8.461,0,0,1-3.96951-1.62164,9.52526,9.52526,0,0,1-2.67923-3.19394,13.643,13.643,0,0,1-1.41013-7.29033,16.44387,16.44387,0,0,1,.31023-2.11519,17.24558,17.24558,0,0,1,2.43957-5.8097A20.82,20.82,0,0,1,31.9648,44.83a30.66888,30.66888,0,0,1,5.94368-2.94013,18.24631,18.24631,0,0,1,5.75331-1.12807,22.156,22.156,0,0,1,2.82022.07049c.70508.0564,1.34668.16218,2.01648.24677.9448.11987,1.86841.31729,2.82025.52175,1.33466.28671,2.31955.53671,2.44083.56748a61.56661,61.56661,0,0,0,27.30826.89841,45.12708,45.12708,0,0,0,13.19763-5.65607Q75.628,24.35486,56.99047,11.29913,40.01668,24.37062,23.01535,37.41058C18.49925,40.87439,12.74788,45.2818,8.22885,48.74179Zm97.53478,0V118.1141q-48.76739.04185-97.53479.08362V115.96c-.00012-2.3064-.00043-2.30371,0-2.30737.28021-2.14656,10.08166-8.81392,15.25409-9.69612a20.48882,20.48882,0,0,1,2.18573-.23266c.40893,0,.76141-.03527,1.21972,0s.92365.09162,1.37488.16919a22.7878,22.7878,0,0,1,5.42194,1.671c1.70625.72619,3.35608,1.57934,5.01294,2.40423,1.36078.6839,2.72864,1.3678,4.10351,2.01648a37.24251,37.24251,0,0,0,4.93543,1.96008,27.24908,27.24908,0,0,0,3.65222.87427,22.297,22.297,0,0,0,3.81439.26795c.57111-.00708,1.14923-.02826,1.72034-.09168a21.52639,21.52639,0,0,0,3.52533-.70508,26.43126,26.43126,0,0,0,5.64044-2.376,38.981,38.981,0,0,0,5.93665-4.09644,59.98148,59.98148,0,0,0,4.93542-4.52649c1.53-1.57226,2.9895-3.201,4.3996-4.886,2.51709-2.98242,4.85784-6.11993,7.1-9.328.07051-.09868.134-.20446.21149-.32434a.70374.70374,0,0,0-.15509-.17627c-.19037-.15509-.39484-.30316-.59222-.45123L84.67528,83.679c-.16365-.121-.24469-.1809-.32466-.17981a.45361.45361,0,0,0-.30986.17981c-.30519.352-24.04023,20.63916-41.60986,18.05017A23.02426,23.02426,0,0,1,31.33031,96.638Q46.5919,85.27,62.26689,72.88345q18.81863-14.89189,36.0748-29.58752,3.71094,2.72292,7.42194,5.44583Z" fill="#bfbaba" fill-rule="evenodd" style="isolation:isolate"/></svg>