<?xml version="1.0" encoding="utf-8"?>
<svg xmlns="http://www.w3.org/2000/svg" viewBox="-24 -24 499.74054 406.42619" fill="currentColor" role="img" aria-label="Zephira Events">
  <g transform="translate(-30.12973 -76.7869)">
    <path d="M172.07243,112.53855c-20.59666,4.4688-24.21971,8.09178-28.68842,28.6885-4.46928-20.59672-8.0918-24.2197-28.689-28.6885,20.59718-4.46926,24.2197-8.09177,28.689-28.689C147.85272,104.44678,151.47577,108.06929,172.07243,112.53855Z"/>
    <path d="M358.29247,100.67464l-160.02018.00565q-2.41307,2.869-4.82634,5.73788,81.24558-.02823,162.49138-.05668l61.21805,61.219L256,328.73493,94.8448,167.58048q15.77434-15.7825,31.54849-31.5649-.022-3.9912-.04413-7.98249l-39.54687,39.547L256,336.77828,425.19768,167.58006Z"/>
    <path d="M345.31849,147.50712l-34.45713-19.46588-111.36178.93354-32.746,18.46632-.13149.07466-21.90142,24.85373-.25338-.0312-.04513.37-.52666.59756,111.056,122.39961L368.10455,171.42369Zm19.881,23.46554-39.31482,5.29145L344.78221,149.543ZM252.41635,185.50257,188.776,177.74173l25.68865-22.02553Zm1.85147,1.60493V290.982L188.55674,179.094Zm1.36953-.00753,67.30961-9.0596L255.63735,291.0146Zm2.07992-1.66092,40.91586-30.04545,23.974,21.31179Zm66.475-9.48333-.01783.02479-.012.02006L300.474,154.94285l42.61718-5.71045ZM255.73207,184.961l-.00334-24.02243,40.0202-5.36222Zm-1.56342-24.02438.00334,23.96086-36.9917-29.03307Zm-66.948,16.08357-18.42286-27.79113,43.82651,6.0102Zm-.30032,2.368,64.38725,109.634-104.342-115.0001,39.59842,4.829Zm138.00124-1.61329,39.86113-5.36528L258.6926,288.9344Zm-124.945-47.01158,110.42044-.92546,31.76543,17.94508L254.9498,159.46931l-85.16526-11.67942Zm-32.80372,18.838,18.39667,27.74935L146.878,172.63247Z"/>
    <path d="M33.2134,210.6651l55.66074-10.43045.18122-.18107L68.39789,179.37774l4.413-4.40907L100.29475,202.477l-3.20418,3.20133L41.67075,216.107l-.18216.182L64.261,239.08167l-4.413,4.40907L30.12973,213.746Z"/>
    <path d="M106.50179,251.97684l-15.8256-15.83968L75.9846,250.8157l17.63813,17.65382-4.413,4.40907L66.31694,249.96542l40.74822-40.712L129.0517,231.2595l-4.413,4.40907-16.73187-16.74675-12.87745,12.866L110.855,247.6275Z"/>
    <path d="M136.30514,239.48532a86.17729,86.17729,0,0,1,10.8731,9.31151c5.194,5.19862,7.79133,10.21587,8.03112,14.80909.29975,4.16932-1.33341,8.45917-4.9617,12.08424-3.68715,3.68386-7.67693,5.49543-11.84614,5.55427-5.7417.17766-11.78265-2.8457-16.91785-7.98547a25.56975,25.56975,0,0,1-3.86555-4.59389l-16.32357,16.30907-5.25467-5.25934ZM121.91061,264.3764a24.97665,24.97665,0,0,0,3.92615,4.776c6.342,6.34764,13.29155,7.136,18.91428,1.51828,5.38078-5.376,4.17442-11.78112-1.62438-17.58508a31.1971,31.1971,0,0,0-5.37638-4.5348Z"/>
    <path d="M174.183,276.431l-17.04848,17.03333,19.69147,19.709L193.87451,296.14l5.31627,5.321-40.74821,40.712-5.31627-5.321,19.10458-19.0876-19.69147-19.709L133.43483,317.143l-5.25467-5.25934,40.74821-40.712Z"/>
    <path d="M213.57252,315.85549l-40.74822,40.712-5.25467-5.25935,40.74822-40.712Z"/>
    <path d="M222.21284,325.59086a77.49538,77.49538,0,0,1,10.93382,9.25084c5.61774,5.62274,8.21429,10.27676,8.453,15.11182a14.34548,14.34548,0,0,1-4.53728,10.93591c-5.37985,5.37507-12.32982,5.55406-18.06924,2.71105l-.18123.18107c2.05237,4.23079,1.02219,9.00459-2.24264,14.20039-4.35438,7.00865-7.31748,11.90111-8.04407,14.31826l-5.43667-5.4415c.48542-1.81219,3.08507-6.22207,7.01612-12.44562,4.415-6.82655,4.35621-11.11715-.2347-16.07459l-4.9532-4.95761L187.263,371.019l-5.25466-5.25934Zm-13.30623,23.80375,5.376,5.38078c5.61774,5.62273,12.26488,6.10844,16.91982,1.45764,5.26027-5.25561,3.75218-11.35926-1.74417-16.98194a30.5794,30.5794,0,0,0-5.67883-4.71608Z"/>
    <path d="M234.21264,392.377l-17.04472,8.57357-5.43667-5.4415,54.58115-26.86677,6.342,6.34764-26.85554,54.617-5.6168-5.6218,8.46739-17.15854Zm17.46073,9.25374,7.74215-15.70968c1.75423-3.56334,3.568-6.58508,5.32195-9.54522l-.1204-.12051c-3.02242,1.812-6.16529,3.623-9.43043,5.31351l-15.77541,7.78886Z"/>
    <path d="M317.67314,343.8746l.9446-.95937,1.34446,3.35846c5.15643,13.06685,7.6159,27.69486-4.452,38.92281-17.59467,16.25088-40.10425-33.22431-26.59126-46.95333,11.69624-11.88408,25.126,10.05324,11.32859,34.11122,5.11752,8.08888,11.16489,13.31375,15.311,9.6923,8.582-7.68433,8.99927-19.47852,3.38664-34.73984Zm-25.02407-6.31908c-4.94041,5.0189-.34215,21.45964,6.56127,33.1968C311.132,350.37012,299.76852,330.32135,292.64907,337.55552Z"/>
    <path d="M353.78158,317.07738c-2.10658,2.14013-7.53137,1.30487-12.771-3.70665,9.36289,26.21757,7.42135,40.00026-2.62317,47.98985-9.75066,7.69574-15.32975-3.027-19.818-15.00169l-8.37937-22.19695c-1.72015-4.454,3.46177-6.76522,3.42823-11.01394l.36362-.369,8.001,20.80956c5.08532,13.28891,10.41216,29.28553,16.38036,24.69667,6.84439-5.32684,11.80626-16.71916.581-46.80238l-.07648-.365c-5.68778-6.034-11.00925-12.4369-8.61284-14.87289,2.61511-2.65738,4.9176,1.35318,7.4616,8.217l2.24478,5.98766a6.05462,6.05462,0,0,0,.81312.946c4.79818,4.7217,10.37995,6.72832,12.19671,4.88338.65345-.66484.79031-1.83755.11674-3.66236l-1.272-3.43226.9446-.95937,1.34446,3.35846C355.15019,314.06443,354.87244,315.96975,353.78158,317.07738Zm-17.08211-11.58151c-2.09585-5.6965-3.73549-9.34411-5.26109-7.79369-1.96167,1.9932,1.80871,6.28285,6.38416,10.78718Z"/>
    <path d="M379.05656,281.50765l.94461-.95936,1.34445,3.35845c5.15644,13.06686,7.6159,27.69486-4.452,38.92282-17.59467,16.25088-40.10291-33.22431-26.58991-46.95333,11.69623-11.88408,25.12469,10.05391,11.32859,34.11122,5.11752,8.08888,11.16489,13.31374,15.30962,9.6923,8.582-7.68433,8.99927-19.47852,3.38664-34.73984Zm-25.02407-6.31908c-4.9404,5.01891-.34215,21.45965,6.56127,33.19681C372.51542,288.00318,361.15194,267.95508,354.03249,275.18857Z"/>
    <path d="M375.22043,250.55966l2.83919,7.30126c-.78091-6.2909.49377-11.86664,5.95076-16.2321,20.37751-16.12676,21.99032,48.5279,33.83146,36.49622,6.17484-6.27413,5.00213-15.85774-.53671-30.7541l-1.272-3.43225.94461-.95937,1.34446,3.35846c5.08129,12.70189,9.061,25.19379-.45621,34.86261-18.08978,18.3796-20.28357-45.97719-33.83145-36.49488-7.35426,5.25706-4.8532,15.85707,1.28139,32.214L395.563,303.71534l-5.81256,5.90514-18.32191-47.67789c-1.72015-4.454,3.46177-6.76522,3.42823-11.01394Z"/>
    <path d="M399.587,230.08421c1.38069-1.40215-.61319-3.65767,2.29175-6.61024l4.50433-4.57612-4.9337-12.7039c-1.72015-4.45335,3.46044-6.76522,3.42689-11.01193l.36362-.369,7.02821,18.10588,11.55132-11.73649.4401.14357c-1.37934,1.40216.61453,3.65633-2.29175,6.60958l-8.35387,8.488,6.72765,17.23105c5.15777,13.21445,10.41215,29.28486,16.3817,24.696,5.82195-4.58551,7.28314-14.33752.99291-31.7175l-1.27066-3.43225.94327-.96L438.73325,225.6c6.28352,16.50045,6.96782,28.79779-1.98583,35.82667-9.75066,7.69507-15.2573-3.10151-19.81932-15.00236l-9.1992-24.02176-7.70043,7.82388Z"/>
    <path d="M469.213,227.555a20.55268,20.55268,0,0,1-4.62241,8.09357c-7.259,8.11437-13.56532,7.13823-17.2552,3.50605-3.32223-3.2699-2.921-8.105-2.14684-12.14036-2.94921-2.31992-3.77843-5.3161-1.162-7.97348,1.37934-1.40282,2.917-1.48736,3.95286-.17779,1.47729,1.74565.844,5.04574.50719,8.49141a18.9635,18.9635,0,0,0,15.53236.90167c-2.34407-9.28171-15.10433-20.67873-20.0273-31.91809-5.51066,6.92758-10.64965,14.65887-6.97856,24.81l1.64636,4.52714-.94461.96-1.72149-4.60161c-4.41041-11.31718,1.45448-19.78511,7.47635-26.93676-2.01936-5.18394-2.20587-10.30817,1.19821-15.09695,5.21413-7.36365,8.82752-4.244,9.21261-1.82951.69235,4.02263-1.83957,8.07009-5.10142,12.27118,6.74107,9.83251,22.51092,21.86486,20.85652,35.06053a31.98955,31.98955,0,0,0,5.092-4.28831c8.06406-8.19286,5.57641-17.32765.03891-32.22335l-1.272-3.43292.94461-.95937,1.34446,3.35913c5.15375,12.77435,10.80261,23.12948-.38375,34.78881A26.5205,26.5205,0,0,1,469.213,227.555Zm-23.41931-7.21a.89183.89183,0,0,0-1.46521-.13418c-1.16332,1.18076-.63466,3.15384,1.21162,4.9706C446.03517,222.9064,446.38538,221.07286,445.79365,220.345Zm7.36231-41.14412c-.24286-3.00087-3.10218-3.3437-5.64349-.61386-2.90494,3.09882-1.99656,6.90007.67357,10.9804C451.1594,185.95464,453.33039,182.56868,453.156,179.20083Zm-4.80489,49.61943c-.267,3.37053.12747,6.81017,2.93044,9.277,2.654,2.32328,6.9799,3.09413,10.82944-1.25657a8.73655,8.73655,0,0,0,2.21259-7.26839A24.19755,24.19755,0,0,1,448.35107,228.82026Z"/>
    <path d="M273.05919,435.2131l-1.26127-1.15259a102.385,102.385,0,0,0,26.87571-63.95023l1.70674.0899a104.10616,104.10616,0,0,1-27.32118,65.01292Z"/>
    <path d="M197.13818,94.69743c-12.8585,2.78987-15.12037,5.0517-17.91019,17.91024-2.79017-12.85854-5.05171-15.12037-17.91054-17.91024,12.85883-2.79016,15.12037-5.0517,17.91054-17.91053C182.01781,89.64573,184.27968,91.90727,197.13818,94.69743Z"/>
  </g>
</svg>
